<?xml version="1.0" encoding="UTF-8"?>
<svg id="Capa_1" xmlns="http://www.w3.org/2000/svg" viewBox="0 0 1080 1080">
  <defs>
    <style>
      .cls-1 {
        fill: #1a252b;
      }

      .cls-2 {
        fill: #eabe3f;
      }
    </style>
  </defs>
  <rect class="cls-1" x="-.47" y="1.15" width="1080.94" height="1077.7"/>
  <g>
    <g>
      <path class="cls-2" d="M133.63,583.66v-66.74h15.68c4.47,0,7.74.25,9.82.75,2.08.5,3.91,1.36,5.49,2.58,1.97,1.55,3.51,3.62,4.6,6.22,1.09,2.6,1.64,5.48,1.64,8.64,0,5.47-1.53,9.63-4.58,12.47-3.05,2.84-7.53,4.26-13.42,4.26h-1.41l25.48,31.82h-10.07l-24.34-31.82h-1.14v31.82h-7.75ZM141.38,523.62v22.34h6.06c6.2,0,10.35-.8,12.45-2.39,2.1-1.6,3.15-4.38,3.15-8.37,0-4.29-1.08-7.29-3.24-9-2.16-1.72-6.28-2.58-12.35-2.58h-6.06Z"/>
      <path class="cls-2" d="M183.59,583.66v-66.74h35.19v7.25h-27.26v19.15h27.26v7.39h-27.26v25.57h27.26v7.39h-35.19Z"/>
      <path class="cls-2" d="M232.23,583.66v-66.74h7.93v59.17h25.21v7.57h-33.14Z"/>
      <path class="cls-2" d="M339.77,550.43c0,4.77-.88,9.27-2.65,13.49-1.76,4.22-4.33,7.98-7.71,11.26-3.38,3.28-7.26,5.81-11.65,7.59-4.4,1.78-8.95,2.67-13.66,2.67s-9.25-.89-13.62-2.67c-4.36-1.78-8.23-4.31-11.61-7.59-3.41-3.31-6-7.08-7.78-11.31-1.78-4.22-2.67-8.71-2.67-13.45s.89-9.28,2.67-13.52c1.78-4.24,4.37-8.02,7.78-11.33,3.34-3.25,7.21-5.76,11.59-7.52,4.38-1.76,8.93-2.64,13.64-2.64s9.31.88,13.71,2.64c4.39,1.76,8.26,4.27,11.61,7.52,3.38,3.28,5.95,7.04,7.71,11.28,1.76,4.24,2.65,8.76,2.65,13.56ZM304.1,577.96c3.65,0,7.12-.69,10.42-2.07,3.3-1.38,6.27-3.4,8.92-6.04,2.62-2.61,4.61-5.58,5.98-8.89,1.37-3.31,2.05-6.82,2.05-10.53s-.69-7.29-2.08-10.67c-1.38-3.37-3.37-6.35-5.95-8.94-2.62-2.61-5.57-4.6-8.87-5.97-3.3-1.37-6.79-2.05-10.47-2.05s-7.22.68-10.54,2.05c-3.31,1.37-6.25,3.36-8.8,5.97-2.62,2.64-4.61,5.64-5.98,8.98-1.37,3.34-2.05,6.88-2.05,10.62s.68,7.2,2.03,10.49c1.35,3.28,3.35,6.26,6,8.94,2.68,2.67,5.65,4.7,8.92,6.06,3.27,1.37,6.74,2.05,10.43,2.05Z"/>
      <path class="cls-2" d="M365.44,516.92h8.02v52.06c0,5.59-1.24,9.73-3.71,12.42-2.48,2.69-6.28,4.03-11.42,4.03-2.74,0-5.2-.54-7.41-1.62-2.2-1.08-4.28-2.74-6.22-4.99l5.24-5.24c1.64,1.7,3.16,2.92,4.56,3.65,1.4.73,2.86,1.09,4.38,1.09,2.4,0,4.1-.9,5.08-2.69.99-1.79,1.48-5.32,1.48-10.58v-48.14Z"/>
      <path class="cls-2" d="M388.87,583.66v-66.74h35.19v7.25h-27.26v19.15h27.26v7.39h-27.26v25.57h27.26v7.39h-35.19Z"/>
      <path class="cls-2" d="M461.81,546.6c4.35,1.85,7.62,4.32,9.82,7.39,2.2,3.07,3.31,6.7,3.31,10.9,0,6.14-1.95,11.09-5.86,14.84-3.9,3.75-9.08,5.63-15.52,5.63-5.26,0-9.66-1.34-13.22-4.03-3.56-2.69-5.96-6.51-7.2-11.47l7.2-3.56c.97,4.04,2.58,7.1,4.81,9.19,2.23,2.08,5.04,3.12,8.41,3.12,3.98,0,7.2-1.15,9.66-3.44,2.46-2.29,3.69-5.28,3.69-8.96,0-2.98-.86-5.57-2.58-7.77-1.72-2.2-4.31-4.06-7.77-5.58l-8.11-3.46c-4.44-1.85-7.74-4.24-9.92-7.16-2.17-2.92-3.26-6.41-3.26-10.49,0-4.74,1.76-8.66,5.29-11.76,3.52-3.1,8.02-4.65,13.49-4.65,4.01,0,7.48.85,10.42,2.55,2.93,1.7,5.22,4.21,6.86,7.52l-6.56,4.19c-1.49-2.58-3.16-4.51-5.01-5.77-1.85-1.26-3.95-1.89-6.29-1.89-2.98,0-5.42.91-7.32,2.74-1.9,1.82-2.85,4.15-2.85,6.97,0,2.37.73,4.42,2.19,6.15,1.46,1.73,3.72,3.27,6.79,4.6l9.53,4.19Z"/>
      <path class="cls-2" d="M611.11,583.66v-50.97h-14.95v-15.77h48.09v15.77h-14.95v50.97h-18.19Z"/>
      <path class="cls-2" d="M653.59,583.66v-66.74h18.37v66.74h-18.37Z"/>
      <path class="cls-2" d="M686.64,583.66v-66.74h40.89v14.68h-23.16v11.53h21.84v14.36h-21.84v11.21h23.16v14.95h-40.89Z"/>
      <path class="cls-2" d="M816.11,583.66h-17l-3.92-28.86c-.33-2.58-.58-4.85-.73-6.79-.21-1.91-.43-4.63-.64-8.16-.55,3.16-1.4,6.69-2.55,10.58-.24.76-.43,1.41-.55,1.96l-9.07,31.27h-12.13l-9.07-31.27c-.09-.52-.27-1.17-.55-1.96-1.28-4.1-2.11-7.63-2.51-10.58-.24,3.34-.47,5.84-.68,7.48-.09.85-.23,2.1-.41,3.74-.18,1.64-.32,2.89-.41,3.74l-3.92,28.86h-16.91l10.3-66.74h18.01l10.07,34.42c.18.64.3,1.05.36,1.23.88,2.86,1.47,5.47,1.78,7.84.06-.82.29-2.16.68-4.01.12-.46.58-2.17,1.37-5.15l10.17-34.33h18.05l10.26,66.74Z"/>
      <path class="cls-2" d="M842.96,583.66h-17.1v-66.74h19.03c7.4,0,12.64.36,15.75,1.09,3.04.79,5.58,2.04,7.61,3.74,2.43,2.04,4.3,4.56,5.61,7.57,1.31,3.07,1.96,6.49,1.96,10.26,0,4.01-.65,7.51-1.96,10.49-1.16,3.01-3.02,5.5-5.61,7.48-1.85,1.46-4.09,2.51-6.7,3.15-2.34.64-6.41.96-12.22.96h-6.38v22.02ZM842.96,546.96h3.46c4.32,0,7.37-.62,9.16-1.87,1.73-1.15,2.6-3.18,2.6-6.06s-.84-4.75-2.53-5.95c-1.69-1.2-4.7-1.8-9.05-1.8h-3.65v15.68Z"/>
      <path class="cls-2" d="M953.6,550.43c0,4.83-.87,9.35-2.6,13.54-1.73,4.1-4.31,7.84-7.74,11.21-3.4,3.28-7.29,5.81-11.66,7.57-4.59,1.79-9.13,2.69-13.62,2.69s-9.1-.9-13.62-2.69c-4.46-1.79-8.32-4.32-11.57-7.57-3.28-3.13-5.86-6.9-7.74-11.31-1.82-4.32-2.73-8.8-2.73-13.45s.91-9.13,2.73-13.45c1.88-4.41,4.46-8.18,7.74-11.31,3.34-3.34,7.2-5.9,11.57-7.66,4.25-1.73,8.79-2.6,13.62-2.6s9.4.87,13.71,2.62c4.31,1.75,8.16,4.29,11.55,7.64,3.39,3.34,5.98,7.11,7.77,11.31,1.73,4.19,2.6,8.68,2.6,13.45ZM917.95,570.03c5.01,0,9.21-1.87,12.58-5.61,1.67-1.85,2.9-3.94,3.69-6.25.79-2.31,1.19-4.89,1.19-7.75,0-5.56-1.66-10.23-4.97-14-3.37-3.74-7.54-5.61-12.49-5.61s-9.25,1.87-12.54,5.61c-3.28,3.74-4.92,8.4-4.92,14s1.61,10.5,4.83,14.09c3.31,3.68,7.52,5.52,12.63,5.52Z"/>
    </g>
    <g>
      <g>
        <path class="cls-2" d="M551.98,535.83l41.85,100.07-55.08-93.44c-4.89-9.29,8.71-16.12,13.23-6.63h0Z"/>
        <path class="cls-2" d="M549.34,544.09l-56.72,83.1,43.92-90.52c5.07-9.25,18.32-1.6,12.81,7.42h0Z"/>
      </g>
      <g>
        <circle class="cls-2" cx="545.36" cy="540.72" r="9.11"/>
        <path class="cls-2" d="M545.36,553.24c-6.91,0-12.52-5.62-12.52-12.52s5.62-12.52,12.52-12.52,12.52,5.62,12.52,12.52-5.62,12.52-12.52,12.52ZM545.36,535.03c-3.14,0-5.69,2.55-5.69,5.69s2.55,5.69,5.69,5.69,5.69-2.55,5.69-5.69-2.55-5.69-5.69-5.69Z"/>
      </g>
    </g>
    <polygon class="cls-2" points="495.22 613.38 491.28 620.21 90 620.21 90 613.38 495.22 613.38"/>
    <polygon class="cls-2" points="577.6 620.21 496.25 620.21 499.96 613.38 574.2 613.38 577.6 620.21"/>
    <polygon class="cls-2" points="990 620.2 586.53 620.2 583.11 613.37 990 613.37 990 620.2"/>
    <rect class="cls-2" x="90" y="480.81" width="900" height="6.83"/>
    <path class="cls-2" d="M545.36,709.35c-30.79,0-60.68-8.79-86.44-25.43-25.08-16.2-45.07-38.99-57.82-65.92l6.18-2.92c25.15,53.12,79.35,87.44,138.08,87.44s112.94-34.32,138.08-87.44l6.18,2.92c-12.75,26.92-32.74,49.72-57.82,65.92-25.75,16.63-55.64,25.43-86.44,25.43Z"/>
    <path class="cls-2" d="M683.95,485.66c-24.94-53.78-79.34-88.52-138.59-88.52s-113.65,34.75-138.59,88.52l-6.2-2.87c26.06-56.18,82.89-92.48,144.79-92.48s118.74,36.3,144.79,92.48l-6.2,2.87Z"/>
    <path class="cls-2" d="M545.36,681.9c-23.12,0-45.88-6.06-65.8-17.53-19.33-11.13-35.66-27.09-47.22-46.17l5.84-3.54c22.93,37.83,63,60.41,107.18,60.41s84-22.45,106.97-60.06l5.83,3.56c-24.22,39.66-66.38,63.33-112.8,63.33Z"/>
    <path class="cls-2" d="M653.12,485.97c-22.49-37.86-63.78-61.38-107.76-61.38s-85.28,23.52-107.76,61.38l-5.87-3.49c11.5-19.36,27.86-35.57,47.32-46.89,20.05-11.67,42.99-17.83,66.32-17.83s46.27,6.17,66.32,17.83c19.46,11.32,35.82,27.54,47.32,46.89l-5.87,3.49Z"/>
    <g>
      <path class="cls-2" d="M342.04,486.51c-1.25,0-2.45-.68-3.05-1.87-.85-1.68-.18-3.74,1.5-4.59l98.31-49.9c1.68-.85,3.74-.18,4.59,1.5.85,1.68.18,3.74-1.5,4.59l-98.31,49.9c-.49.25-1.02.37-1.54.37Z"/>
      <path class="cls-2" d="M440.34,670.11c-.52,0-1.05-.12-1.54-.37l-98.31-49.9c-1.68-.85-2.35-2.91-1.5-4.59.85-1.68,2.91-2.35,4.59-1.5l98.31,49.9c1.68.85,2.35,2.91,1.5,4.59-.6,1.19-1.8,1.87-3.05,1.87Z"/>
    </g>
    <g>
      <path class="cls-2" d="M748.34,486.51c-.52,0-1.05-.12-1.54-.37l-98.31-49.9c-1.68-.85-2.35-2.91-1.5-4.59.85-1.68,2.91-2.35,4.59-1.5l98.31,49.9c1.68.85,2.35,2.91,1.5,4.59-.6,1.19-1.8,1.87-3.05,1.87Z"/>
      <path class="cls-2" d="M650.04,670.11c-1.25,0-2.45-.68-3.05-1.87-.85-1.68-.18-3.74,1.5-4.59l98.31-49.9c1.68-.85,3.74-.18,4.59,1.5.85,1.68.18,3.74-1.5,4.59l-98.31,49.9c-.5.25-1.02.37-1.54.37Z"/>
    </g>
    <path class="cls-2" d="M528.1,393.72h-6.83v-18.95s2.4-.75,2.4-.75c14.48-4.5,29-4.5,43.18,0l2.38.76v18.94h-6.83v-13.89c-11.28-3.13-22.79-3.12-34.3.01v13.88Z"/>
    <g>
      <rect class="cls-2" x="543.65" y="429.16" width="3.42" height="15.7"/>
      <rect class="cls-2" x="543.65" y="652.68" width="3.42" height="15.7"/>
    </g>
    <g>
      <rect class="cls-2" x="487.77" y="444.14" width="3.42" height="15.7" transform="translate(-160.41 305.3) rotate(-30)"/>
      <rect class="cls-2" x="599.53" y="637.71" width="3.42" height="15.7" transform="translate(-242.22 387.1) rotate(-30)"/>
    </g>
    <g>
      <rect class="cls-2" x="481.63" y="643.85" width="15.7" height="3.42" transform="translate(-314.34 746.63) rotate(-60)"/>
      <rect class="cls-2" x="593.39" y="450.28" width="15.7" height="3.42" transform="translate(-90.83 746.63) rotate(-60)"/>
    </g>
  </g>
</svg>