<?xml version="1.0" encoding="UTF-8"?>
<svg id="Capa_1" xmlns="http://www.w3.org/2000/svg" viewBox="0 0 1080 1080">
  <g>
    <g>
      <path d="M821.08,577.21c11.17-11.64,24.9-17.54,41.56-17.54s29.6,5.73,40.97,17.37c11.37,11.47,17.05,25.3,17.05,41.66s-5.68,30.19-17.05,41.66c-11.37,11.47-25.09,17.2-40.97,17.2s-29.6-5.73-40.97-17.2c-11.37-11.47-17.05-25.3-17.05-41.66s5.49-29.85,16.47-41.49ZM881.06,567.43c-4.31-3.88-10.39-5.74-18.43-5.74s-14.11,1.86-18.23,5.74c-7.25,6.58-10.98,23.78-10.98,51.28,0,15.18.78,26.48,2.35,34.07,1.77,7.59,4.51,13.16,8.63,17.04,4.12,3.88,10.19,5.9,18.23,5.9s14.31-2.02,18.43-5.9c4.12-3.71,6.86-9.28,8.43-16.87,1.57-7.59,2.35-18.89,2.35-34.24,0-27.49-3.53-44.7-10.78-51.28Z"/>
      <g>
        <path d="M398.57,601h-1.86c0-10.12-2.7-18.72-8.27-25.81-5.57-7.25-13.49-10.8-24.12-10.8h-3.21v108.46h14.17v2.02h-51.11v-2.02h14.51v-108.46h-3.37c-10.46,0-18.38,3.54-23.61,10.8-5.23,7.08-7.76,15.69-7.76,25.81h-2.02v-38.63h96.65v38.63Z"/>
        <path d="M459.46,674.87h-51.45v-2.02h14.34v-108.46h-14.34v-2.03h51.45v2.03h-14.68v108.46h14.68v2.02Z"/>
        <path d="M561.67,674.87h-90.58v-2.02h14.51v-108.46h-14.51v-2.03h82.65v33.9h-2.03c0-8.27-2.36-15.69-7.08-22.1-4.55-6.58-11.3-9.78-20.24-9.78h-16.53v51.61h3.71c11.64,0,18.89-9.95,18.89-21.59h2.19v45.2h-2.19c0-11.64-7.25-21.59-18.89-21.59h-3.71v54.82h17.04c11.64,0,20.24-3.54,26.14-10.46,5.9-7.08,8.77-15.35,8.77-24.63h1.86v37.11Z"/>
        <path d="M570.95,674.87v-2.02h8.94c3.71,0,5.57-1.69,5.57-4.89v-103.56h-14.51v-2.03h37.78l28.34,79.11,25.3-79.11h37.28v2.03h-14.34v108.46h14.34v2.02h-51.28v-2.02h14.34v-105.25l-34.58,109.3h-1.69l-38.96-109.64v100.7c0,3.21,1.86,4.89,5.74,4.89h9.95v2.02h-32.22Z"/>
        <path d="M761.88,627.14c-4.22,0-8.6-.67-13.16-2.02v47.74h14.51v2.02h-51.45v-2.02h14.34v-108.46h-14.34v-2.03h45.21c13.49,0,23.95,3.21,31.37,9.45,7.42,6.24,11.13,14.51,11.13,24.46,0,19.4-13.83,30.87-37.61,30.87ZM756.99,564.39h-8.27v58.19c3.54,1.69,7.93,2.53,13.16,2.53,6.91,0,11.3-1.69,12.82-5.23,1.52-3.54,2.36-11.3,2.36-23.61,0-22.94-5.74-31.88-20.07-31.88Z"/>
      </g>
    </g>
    <g>
      <path d="M392.19,532.87l-24.62-40.89h-21.06v40.89h-6.15v-96.01h26.39c10.67,0,18.67,2.51,24,7.52,5.33,5.02,8,11.67,8,19.97,0,7.39-2.07,13.47-6.22,18.26-4.15,4.79-10.19,7.73-18.12,8.82l25.16,41.44h-7.39ZM346.51,486.79h20.51c8.48,0,14.82-2.05,19.01-6.15,4.19-4.1,6.29-9.53,6.29-16.28,0-14.68-8.53-22.02-25.57-22.02h-20.24v44.45Z"/>
      <path d="M483.68,498.14h-64.14c.18,6.66,1.64,12.26,4.38,16.82,2.73,4.56,6.34,7.98,10.8,10.26,4.47,2.28,9.34,3.42,14.63,3.42,7.29,0,13.4-1.8,18.33-5.4,4.92-3.6,8.02-8.5,9.3-14.7h6.43c-1.46,7.57-5.2,13.7-11.21,18.39-6.02,4.7-13.63,7.04-22.84,7.04-6.93,0-13.13-1.55-18.6-4.65-5.47-3.1-9.76-7.54-12.86-13.33-3.1-5.79-4.65-12.56-4.65-20.31s1.52-14.5,4.58-20.24c3.05-5.74,7.32-10.14,12.79-13.2,5.47-3.05,11.71-4.58,18.74-4.58s13.29,1.53,18.53,4.58c5.24,3.06,9.23,7.11,11.97,12.17,2.73,5.06,4.1,10.51,4.1,16.34,0,3.28-.09,5.74-.27,7.39ZM474.31,476.39c-2.6-4.56-6.13-7.95-10.6-10.19-4.47-2.23-9.3-3.35-14.5-3.35s-10.01,1.12-14.43,3.35c-4.42,2.23-8.03,5.63-10.8,10.19-2.78,4.56-4.26,10.12-4.45,16.68h58.26c.27-6.56-.89-12.12-3.49-16.68Z"/>
      <path d="M508.71,431.67v101.2h-6.15v-101.2h6.15Z"/>
      <path d="M545.22,529.32c-5.56-3.1-9.91-7.54-13.06-13.33-3.15-5.79-4.72-12.56-4.72-20.31s1.59-14.38,4.79-20.17c3.19-5.79,7.59-10.21,13.2-13.27,5.61-3.05,11.87-4.58,18.8-4.58s13.17,1.53,18.74,4.58c5.56,3.06,9.91,7.45,13.06,13.2,3.15,5.74,4.72,12.49,4.72,20.24s-1.6,14.52-4.79,20.31c-3.19,5.79-7.59,10.24-13.2,13.33-5.61,3.1-11.88,4.65-18.81,4.65s-13.18-1.55-18.74-4.65ZM579.07,524.87c4.7-2.41,8.46-6.09,11.28-11.01,2.82-4.92,4.24-10.99,4.24-18.19s-1.41-13.13-4.24-18.05c-2.83-4.92-6.57-8.59-11.21-11.01-4.65-2.41-9.67-3.62-15.04-3.62s-10.37,1.21-14.98,3.62c-4.6,2.42-8.32,6.09-11.14,11.01-2.83,4.92-4.24,10.94-4.24,18.05s1.39,13.27,4.17,18.19c2.78,4.92,6.47,8.6,11.08,11.01,4.6,2.42,9.59,3.63,14.97,3.63s10.42-1.21,15.11-3.63Z"/>
      <path d="M626.73,552.02c0,5.29-1.3,9.25-3.9,11.9-2.6,2.64-6.73,3.97-12.38,3.97h-5.74v-5.47h5.06c3.83,0,6.59-.8,8.27-2.39,1.69-1.6,2.53-4.45,2.53-8.55v-92.86h6.15v93.41ZM619.89,440.63c-1-.96-1.5-2.26-1.5-3.9,0-1.55.5-2.83,1.5-3.83,1-1,2.23-1.5,3.69-1.5s2.71.5,3.76,1.5c1.05,1,1.57,2.28,1.57,3.83s-.53,2.83-1.57,3.83c-1.05,1-2.3,1.5-3.76,1.5s-2.69-.48-3.69-1.44Z"/>
      <path d="M715.76,498.14h-64.14c.18,6.66,1.64,12.26,4.38,16.82,2.73,4.56,6.34,7.98,10.8,10.26,4.47,2.28,9.34,3.42,14.63,3.42,7.29,0,13.4-1.8,18.33-5.4,4.92-3.6,8.02-8.5,9.3-14.7h6.43c-1.46,7.57-5.2,13.7-11.21,18.39-6.02,4.7-13.63,7.04-22.84,7.04-6.93,0-13.13-1.55-18.6-4.65-5.47-3.1-9.76-7.54-12.86-13.33-3.1-5.79-4.65-12.56-4.65-20.31s1.52-14.5,4.58-20.24c3.05-5.74,7.32-10.14,12.79-13.2,5.47-3.05,11.71-4.58,18.74-4.58s13.29,1.53,18.53,4.58c5.24,3.06,9.23,7.11,11.97,12.17,2.73,5.06,4.1,10.51,4.1,16.34,0,3.28-.09,5.74-.27,7.39ZM706.39,476.39c-2.6-4.56-6.13-7.95-10.6-10.19-4.47-2.23-9.3-3.35-14.5-3.35s-10.01,1.12-14.43,3.35c-4.42,2.23-8.03,5.63-10.8,10.19-2.78,4.56-4.26,10.12-4.45,16.68h58.26c.27-6.56-.89-12.12-3.49-16.68Z"/>
      <path d="M739.08,528.5c-5.24-3.65-8.18-8.84-8.82-15.59h6.29c.46,4.83,2.67,8.66,6.63,11.49,3.96,2.83,9.37,4.24,16.21,4.24,5.65,0,10.14-1.44,13.47-4.31,3.33-2.87,4.99-6.4,4.99-10.6,0-2.92-.89-5.31-2.67-7.18-1.78-1.87-3.99-3.3-6.63-4.31-2.65-1-6.25-2.1-10.8-3.28-5.47-1.46-9.9-2.89-13.27-4.31-3.37-1.41-6.25-3.53-8.62-6.36-2.37-2.82-3.55-6.61-3.55-11.35,0-3.46,1.05-6.68,3.15-9.64,2.1-2.96,5.01-5.31,8.75-7.04,3.74-1.73,7.98-2.6,12.72-2.6,7.75,0,14.02,1.94,18.81,5.81,4.79,3.88,7.36,9.23,7.73,16.07h-6.15c-.28-4.92-2.19-8.93-5.74-12.04-3.56-3.1-8.48-4.65-14.77-4.65-5.29,0-9.66,1.37-13.13,4.1-3.47,2.73-5.2,6.06-5.2,9.98,0,3.47.98,6.27,2.94,8.41,1.96,2.14,4.38,3.78,7.25,4.92,2.87,1.14,6.68,2.35,11.42,3.62,5.2,1.37,9.37,2.71,12.51,4.03,3.15,1.32,5.81,3.24,8,5.74,2.19,2.51,3.28,5.86,3.28,10.05,0,3.83-1.05,7.3-3.15,10.39-2.1,3.1-5.02,5.52-8.75,7.25-3.74,1.73-7.93,2.6-12.58,2.6-8.3,0-15.07-1.82-20.31-5.47Z"/>
      <path d="M826.95,475.57c3.05-5.74,7.29-10.16,12.72-13.27,5.42-3.1,11.6-4.65,18.53-4.65,7.84,0,14.5,1.91,19.97,5.74,5.47,3.83,9.3,8.71,11.49,14.63v-19.42h6.15v74.26h-6.15v-19.56c-2.19,6.02-6.04,10.96-11.56,14.84-5.52,3.88-12.15,5.81-19.9,5.81-6.93,0-13.11-1.57-18.53-4.72-5.43-3.15-9.67-7.61-12.72-13.4-3.06-5.79-4.58-12.51-4.58-20.17s1.52-14.36,4.58-20.1ZM885.62,478.51c-2.69-4.97-6.36-8.8-11.01-11.49-4.65-2.69-9.85-4.03-15.59-4.03s-11.31,1.3-15.87,3.9c-4.56,2.6-8.11,6.36-10.67,11.28-2.55,4.92-3.83,10.76-3.83,17.51s1.28,12.58,3.83,17.5c2.55,4.92,6.13,8.71,10.74,11.35,4.6,2.65,9.87,3.97,15.8,3.97s10.96-1.35,15.66-4.03c4.7-2.69,8.36-6.52,11.01-11.49,2.64-4.97,3.97-10.74,3.97-17.3s-1.35-12.19-4.03-17.16Z"/>
    </g>
  </g>
  <g>
    <g>
      <line x1="291.44" y1="533.05" x2="213.79" y2="626.88"/>
      <rect x="191.72" y="578.11" width="121.79" height="3.72" transform="translate(-355.24 404.8) rotate(-50.39)"/>
    </g>
    <g>
      <path d="M330.17,432.87v12.56c-.81-.42-1.62-.81-2.44-1.21-7.9-3.76-16.06-6.59-24.46-8.48-8.4-1.91-17.06-2.85-25.86-2.85-64.58,0-117.11,52.53-117.11,117.11s52.53,117.11,117.11,117.11c11.01,0,21.67-1.53,31.77-4.38v11.75c-10.16,2.59-20.81,3.97-31.77,3.97-70.83,0-128.44-57.61-128.44-128.44s57.61-128.44,128.44-128.44c18.42,0,36.15,3.82,52.76,11.31Z"/>
      <g>
        <path d="M277.41,562.18c-6.71,0-12.18-5.46-12.18-12.18s5.46-12.18,12.18-12.18,12.18,5.46,12.18,12.18-5.46,12.18-12.18,12.18ZM277.41,549.16c-.47,0-.84.38-.84.84s.38.84.84.84.84-.38.84-.84-.38-.84-.84-.84Z"/>
        <polygon points="277.41 543.49 398.84 550 277.41 556.51 277.41 543.49 277.41 543.49"/>
        <polygon points="277.41 482.05 283.92 550 270.9 550 277.41 482.05 277.41 482.05"/>
        <circle cx="277.41" cy="550" r="6.61"/>
      </g>
    </g>
  </g>
</svg>