<?xml version="1.0" encoding="UTF-8"?>
<svg id="Capa_2" data-name="Capa 2" xmlns="http://www.w3.org/2000/svg" viewBox="0 0 487.91 241.81">
  <defs>
    <style>
      .cls-1 {
        fill: #fff;
        stroke: #fff;
        stroke-linecap: round;
        stroke-linejoin: round;
        stroke-width: .25px;
      }
    </style>
  </defs>
  <g id="Capa_2-2" data-name="Capa 2">
    <path class="cls-1" d="M147.52,129.07c-6.27,5.1-12.55,10.19-21.45,17.42,10.82,5.93,19.69,10.79,30.23,16.58,2.16-15.84,3.91-28.84,5.71-41.84,1.33-9.61,6.58-16.15,16.53-14.31,9.83,1.82,11.99,9.66,10.83,19.24-1.44,11.95-2.44,24.06-2.1,36.06.11,3.74,4.55,8.84,8.24,10.39,2.02.85,7.94-3.68,9.79-7.05,4.88-8.93,8.74-18.45,12.52-27.93,2.16-5.41,2.72-11.5,5.16-16.74,3.72-7.99,3.67-21.59,18.85-15.79,11.78,4.5,14.47,15.76,9.55,29.05-2.72,7.36-3.3,15.96-2.8,23.88.26,4.11,4.94,7.95,8.26,12.85,12.79-18.7,23.75-35.3,35.5-51.33,1.64-2.23,5.35-2.94,8.74-3.88,1.35-.38,2.79.12,3.58,1.28,5.68,8.32,26.7,5.52,35.03,17.49,9.29-38.44-4.42-76.91,18.54-111,.74-1.1,2.36-1.03,3.01.12,9.7,17.21,10.26,51.61,10.5,77.11.26,26.89,2.13,40.85-8.84,79.03,1.07,1.35,2.13,2.7,3.2,4.04,3.84-2.46,9.53-4.03,11.21-7.53,7.37-15.37,13.58-31.3,20.46-47.62-.32-.61-.87-1.94-1.66-3.11-1.64-2.44-3.31-4.86-4.99-7.27-1.59-2.29.21-5.39,2.98-5.16s5.64.46,8.47.61c2.57.13,5.24-.59,7.75-.21,4.8.74,11.87.4,13.85,3.32,7.17,10.59,15.14,14.98,23.03,11.65,2.74-1.16,5.87-.91,8.42.62,11.95,7.21,22.07,13.32,32.19,19.42-.56,2.03-.51,1.83-1.07,3.86h-31.15c3.18,7.86,5.32,14.45,8.43,20.54,7.29,14.3,5.37,20.44-8.37,28.11-9.14,5.1-18.19,10.58-26.48,16.93-17.13,13.14-36.28,9.48-48.64-11.31-4.43,3.78-9.6,6.78-12.78,11.2-8.42,11.74-10.58,12.12-19,.86-1.75-2.34-3.49-4.68-4.24-5.68-15.11,9.14-28.91,20.13-44.6,26.33-19.94,7.89-33.16-4.89-43.05-20.95-18.21,5.03-22.52,2.62-28.5-16.66-28.23,25.75-53.57,9.35-77.57-6.54-13.97-9.25-25.36-22.41-39.03-34.82-13.88,16.21-28.28,32.64-42.22,49.44-12.09,14.56-18.73,15.85-34.79,5.52-3.29-2.12-6.42-4.51-9.84-6.39-10.85-5.95-14.64-13.61-7.57-25.18,2.45-4.02,3.19-9.08,5.01-14.58-2.54-1.32-4.51-2.39-6.51-3.38-18.31-9.01-21.67-27.03-4.31-37.34,16.53-9.82,17.94-23.43,19.35-38.91.97-10.7,2.95-21.34,3.4-32.05.31-7.44-.01-15.31-2.14-22.36-4.35-14.41-1.83-19.24,15.92-29.16C59.25-.34,68.34-.31,75.44,11.48c4.03,6.69,9.34,13.03,11.5,20.29,1.83,6.16,1.42,13.87-.54,20.1-4.38,13.89-10.34,27.27-15.96,41.62C140.91,61.54,275.95.3,275.95.3c4.19-1.09,7.28,3.06,3.52,6.52-58.64,37.65-117.28,75.3-175.58,112.73,11.14,27,28.33,9.01,43.63,9.52ZM318.1,172.85l-6.3-2.62c-10.17,10.05-18.38,18.85-18.4,36.36-.01,10.21,9.39,9.9,12.94,7.83,6.85-4,14.98-9.6,24.81-13.55,1.57-.63,1.49-2.87-.11-3.39-3.35-1.1-5.96-1.95-8.37-2.74-2.73-.9-4.57-3.44-4.57-6.32v-15.57ZM88.87,131.34c-21.03,12.73-27.97,24.54-21.28,36.57,11.26-6.85,22.47-13.67,34.31-20.87-5.12-6.17-9.11-10.98-13.03-15.7ZM420.95,176.69c-.77-7.36-1.48-14.21-2.25-21.6-.17-1.63-2.26-2.2-3.23-.88-4.92,6.73-9.99,12.72-12.46,19.63-2.28,6.38-.86,14.08-.69,21.33.02.83.85,1.39,1.63,1.13,1.88-.63,3.76-1.27,5.62-1.9,7.47-2.52,12.19-9.88,11.37-17.72Z"/>
  </g>
</svg>