<svg xmlns="http://www.w3.org/2000/svg" xmlns:xlink="http://www.w3.org/1999/xlink" width="400" zoomAndPan="magnify" viewBox="0 0 300 307.91998" height="400" preserveAspectRatio="xMidYMid meet" version="1.2"><defs><clipPath id="1d2ffc19d7"><path d="M 28 0 L 299.960938 0 L 299.960938 273 L 28 273 Z M 28 0 "/></clipPath><clipPath id="f3a93cfa28"><path d="M 0.0390625 150 L 37 150 L 37 186 L 0.0390625 186 Z M 0.0390625 150 "/></clipPath><clipPath id="ac1c0485b9"><path d="M 114 264 L 151 264 L 151 299.921875 L 114 299.921875 Z M 114 264 "/></clipPath></defs><g id="8b30d2072f"><g clip-rule="nonzero" clip-path="url(#1d2ffc19d7)"><path style=" stroke:none;fill-rule:nonzero;fill:#dedcce;fill-opacity:1;" d="M 294.09375 0.167969 C 276.277344 0.167969 255.554688 4.035156 233.878906 11.289062 C 233.863281 11.292969 233.851562 11.289062 233.835938 11.292969 C 233.824219 11.300781 233.816406 11.304688 233.804688 11.3125 C 232.050781 11.898438 230.292969 12.46875 228.527344 13.101562 C 228.355469 13.164062 228.175781 13.242188 228.003906 13.328125 C 223.628906 14.902344 219.328125 16.613281 215.089844 18.398438 C 215.066406 18.402344 215.042969 18.421875 215.023438 18.425781 C 188.75 29.492188 165.417969 44.234375 149.683594 59.96875 L 119.035156 90.617188 L 93.464844 90.617188 C 81.15625 90.617188 69.585938 95.410156 60.875 104.113281 L 30.175781 134.816406 C 28.511719 136.480469 28.027344 138.988281 28.953125 141.152344 C 29.859375 143.273438 31.949219 144.640625 34.246094 144.640625 C 34.292969 144.640625 34.335938 144.640625 34.382812 144.640625 L 83.292969 143.460938 C 80.949219 156.28125 82.363281 169.601562 87.851562 181.59375 C 71.203125 198.683594 58.398438 221.226562 68.832031 231.660156 C 71.445312 234.277344 74.824219 235.429688 78.691406 235.429688 C 90.25 235.429688 106.132812 225.074219 118.949219 212.578125 C 127.242188 216.359375 136.136719 218.320312 145.105469 218.320312 C 149.097656 218.320312 153.085938 217.914062 157.035156 217.191406 L 155.855469 266.113281 C 155.796875 268.46875 157.179688 270.613281 159.34375 271.542969 C 160.074219 271.851562 160.84375 272.007812 161.609375 272.007812 C 163.109375 272.007812 164.582031 271.421875 165.679688 270.320312 L 196.382812 239.621094 C 205.085938 230.910156 209.878906 219.339844 209.878906 207.03125 L 209.878906 181.445312 L 240.300781 150.992188 C 256.140625 135.195312 270.929688 111.714844 281.984375 85.257812 C 281.984375 85.25 281.988281 85.25 281.988281 85.246094 C 283.835938 80.824219 285.605469 76.34375 287.226562 71.78125 C 287.832031 70.082031 288.371094 68.402344 288.9375 66.714844 C 288.960938 66.667969 288.996094 66.628906 289.019531 66.582031 C 289.046875 66.511719 289.027344 66.4375 289.058594 66.363281 C 296.300781 44.601562 300.105469 23.792969 300.011719 5.894531 C 299.984375 2.722656 297.261719 0.167969 294.09375 0.167969 Z M 86.503906 131.867188 L 48.488281 132.78125 L 69.007812 112.253906 C 75.542969 105.726562 84.222656 102.128906 93.457031 102.128906 L 107.515625 102.128906 L 102.140625 107.503906 C 95.070312 114.585938 89.847656 122.949219 86.503906 131.867188 Z M 108.230469 164.796875 C 104.464844 167.195312 100.636719 170.011719 96.84375 173.222656 C 93.285156 163.535156 92.765625 152.996094 95.117188 142.921875 C 98.511719 151.191406 103.78125 159.015625 108.230469 164.796875 Z M 112.007812 203.296875 C 93.871094 221.4375 78.882812 225.425781 76.972656 223.519531 C 75.070312 221.613281 79.066406 206.613281 97.199219 188.484375 C 105.207031 180.476562 113.785156 174.117188 121.34375 170.574219 C 125.800781 168.492188 128.851562 167.925781 130.578125 167.925781 C 131.503906 167.925781 132.050781 168.089844 132.230469 168.265625 C 132.734375 168.773438 133.128906 172.296875 129.921875 179.152344 C 126.375 186.71875 120.007812 195.289062 112.007812 203.296875 Z M 127.265625 203.648438 C 130.484375 199.847656 133.3125 196.007812 135.710938 192.230469 C 141.589844 196.738281 149.46875 201.960938 157.8125 205.316406 C 147.675781 207.722656 137.035156 207.222656 127.265625 203.648438 Z M 198.363281 207.027344 C 198.363281 216.261719 194.765625 224.941406 188.234375 231.476562 L 167.714844 252.003906 L 168.632812 213.953125 C 177.5625 210.609375 185.9375 205.402344 193.019531 198.324219 L 198.367188 192.96875 L 198.367188 207.027344 Z M 232.152344 142.847656 L 184.875 190.175781 C 182.789062 192.261719 180.566406 194.144531 178.246094 195.847656 C 178.238281 195.851562 178.21875 195.851562 178.207031 195.863281 C 171.335938 199.835938 156.753906 194.191406 141.226562 181.886719 C 146.230469 169.855469 143.644531 163.398438 140.363281 160.121094 C 137.09375 156.839844 130.632812 154.242188 118.582031 159.269531 C 106.96875 144.671875 101.15625 130.636719 103.890625 123.308594 C 105.777344 120.613281 107.894531 118.035156 110.285156 115.644531 L 125.480469 100.449219 C 125.488281 100.441406 125.488281 100.441406 125.492188 100.4375 L 157.824219 68.105469 C 171.070312 54.859375 190.238281 42.3125 212.089844 32.289062 C 214.398438 43.578125 221.75 56.128906 233.011719 67.375 C 244.269531 78.617188 256.828125 85.941406 268.109375 88.230469 C 258.09375 110.25 245.496094 129.535156 232.152344 142.847656 Z M 272.753906 77.382812 C 263.390625 76.296875 251.457031 69.515625 241.152344 59.230469 C 230.839844 48.9375 224.035156 36.96875 222.941406 27.625 C 225.742188 26.496094 228.5625 25.398438 231.417969 24.363281 C 231.410156 24.441406 231.433594 24.519531 231.429688 24.59375 C 231.144531 30.402344 235.964844 41.78125 247.257812 53.078125 C 258.617188 64.433594 270.054688 69.21875 275.886719 68.902344 C 275.921875 68.902344 275.960938 68.90625 275.996094 68.90625 C 274.964844 71.761719 273.878906 74.582031 272.753906 77.382812 Z M 279.679688 57.625 C 278.207031 57.445312 276.722656 57.320312 275.226562 57.40625 C 273.324219 57.648438 265.011719 54.539062 255.371094 44.894531 C 245.832031 35.363281 242.917969 27.074219 242.929688 25.21875 C 243.023438 23.675781 242.90625 22.144531 242.71875 20.621094 C 258.863281 15.625 274.613281 12.507812 288.371094 11.828125 C 287.746094 25.578125 284.664062 41.394531 279.679688 57.625 Z M 279.679688 57.625 "/></g><path style=" stroke:none;fill-rule:nonzero;fill:#dedcce;fill-opacity:1;" d="M 189.128906 72.9375 C 178.691406 72.9375 168.882812 77 161.507812 84.375 C 154.128906 91.75 150.070312 101.558594 150.070312 111.996094 C 150.070312 122.433594 154.128906 132.242188 161.507812 139.617188 C 168.882812 146.996094 178.691406 151.054688 189.128906 151.054688 C 199.566406 151.054688 209.375 146.992188 216.75 139.617188 C 224.128906 132.234375 228.1875 122.433594 228.1875 111.996094 C 228.1875 101.558594 224.128906 91.75 216.75 84.375 C 209.375 77 199.566406 72.9375 189.128906 72.9375 Z M 208.609375 131.480469 C 203.410156 136.6875 196.492188 139.546875 189.128906 139.546875 C 181.765625 139.546875 174.851562 136.679688 169.648438 131.480469 C 164.445312 126.277344 161.582031 119.363281 161.582031 112 C 161.582031 104.644531 164.445312 97.726562 169.648438 92.519531 C 174.847656 87.316406 181.765625 84.457031 189.128906 84.457031 C 196.492188 84.457031 203.40625 87.324219 208.609375 92.519531 C 213.8125 97.726562 216.671875 104.640625 216.671875 112 C 216.671875 119.359375 213.8125 126.277344 208.609375 131.480469 Z M 208.609375 131.480469 "/><g clip-rule="nonzero" clip-path="url(#f3a93cfa28)"><path style=" stroke:none;fill-rule:nonzero;fill:#dedcce;fill-opacity:1;" d="M 10.394531 184.011719 L 34.457031 159.949219 C 36.707031 157.699219 36.707031 154.058594 34.457031 151.808594 C 32.207031 149.558594 28.570312 149.558594 26.316406 151.808594 L 2.253906 175.871094 C 0.00390625 178.121094 0.00390625 181.761719 2.253906 184.011719 C 3.378906 185.132812 4.851562 185.699219 6.324219 185.699219 C 7.800781 185.699219 9.273438 185.132812 10.394531 184.011719 Z M 10.394531 184.011719 "/></g><path style=" stroke:none;fill-rule:nonzero;fill:#dedcce;fill-opacity:1;" d="M 63.996094 236.335938 C 61.746094 234.082031 58.105469 234.082031 55.855469 236.335938 L 18.617188 273.566406 C 16.363281 275.820312 16.363281 279.457031 18.617188 281.707031 C 19.738281 282.832031 21.210938 283.394531 22.6875 283.394531 C 24.160156 283.394531 25.632812 282.832031 26.753906 281.707031 L 63.996094 244.472656 C 66.242188 242.230469 66.242188 238.585938 63.996094 236.335938 Z M 63.996094 236.335938 "/><path style=" stroke:none;fill-rule:nonzero;fill:#dedcce;fill-opacity:1;" d="M 47.15625 193.707031 C 44.90625 191.453125 41.269531 191.453125 39.015625 193.707031 L 7.5 225.222656 C 5.25 227.472656 5.25 231.113281 7.5 233.363281 C 8.621094 234.484375 10.097656 235.050781 11.570312 235.050781 C 13.042969 235.050781 14.515625 234.484375 15.640625 233.363281 L 47.15625 201.847656 C 49.40625 199.601562 49.40625 195.957031 47.15625 193.707031 Z M 47.15625 193.707031 "/><g clip-rule="nonzero" clip-path="url(#ac1c0485b9)"><path style=" stroke:none;fill-rule:nonzero;fill:#dedcce;fill-opacity:1;" d="M 140.378906 265.871094 L 116.316406 289.933594 C 114.066406 292.183594 114.066406 295.824219 116.316406 298.074219 C 117.441406 299.195312 118.914062 299.761719 120.386719 299.761719 C 121.863281 299.761719 123.335938 299.195312 124.457031 298.074219 L 148.519531 274.011719 C 150.769531 271.761719 150.769531 268.121094 148.519531 265.871094 C 146.269531 263.621094 142.632812 263.621094 140.378906 265.871094 Z M 140.378906 265.871094 "/></g><path style=" stroke:none;fill-rule:nonzero;fill:#dedcce;fill-opacity:1;" d="M 98.484375 253.171875 L 66.964844 284.691406 C 64.714844 286.941406 64.714844 290.578125 66.964844 292.828125 C 68.089844 293.953125 69.5625 294.515625 71.035156 294.515625 C 72.507812 294.515625 73.984375 293.953125 75.105469 292.828125 L 106.625 261.3125 C 108.875 259.0625 108.875 255.421875 106.625 253.171875 C 104.371094 250.921875 100.734375 250.921875 98.484375 253.171875 Z M 98.484375 253.171875 "/></g></svg>