<svg xmlns="http://www.w3.org/2000/svg" xmlns:xlink="http://www.w3.org/1999/xlink" width="400" zoomAndPan="magnify" viewBox="0 0 300 307.91998" height="400" preserveAspectRatio="xMidYMid meet" version="1.2"><defs><clipPath id="e9c8f1784b"><path d="M 1 4.875 L 299.960938 4.875 L 299.960938 299.921875 L 1 299.921875 Z M 1 4.875 "/></clipPath></defs><g id="ada019f278"><g clip-rule="nonzero" clip-path="url(#e9c8f1784b)"><path style=" stroke:none;fill-rule:nonzero;fill:#dedcce;fill-opacity:1;" d="M 287.558594 129.519531 L 264.039062 137.03125 C 263.5625 137.210938 263.066406 137.292969 262.558594 137.277344 C 261.96875 137.277344 261.402344 137.175781 260.851562 136.96875 C 260.300781 136.765625 259.800781 136.472656 259.355469 136.089844 C 258.910156 135.710938 258.542969 135.261719 258.257812 134.75 C 257.96875 134.238281 257.78125 133.691406 257.6875 133.113281 C 257.597656 132.53125 257.605469 131.957031 257.722656 131.378906 C 257.835938 130.804688 258.042969 130.265625 258.351562 129.765625 C 258.65625 129.261719 259.039062 128.828125 259.5 128.464844 C 259.957031 128.101562 260.46875 127.828125 261.027344 127.644531 L 284.644531 120.082031 C 284.953125 119.984375 285.269531 119.917969 285.59375 119.878906 C 285.917969 119.84375 286.238281 119.839844 286.5625 119.867188 C 286.886719 119.894531 287.207031 119.953125 287.519531 120.042969 C 287.832031 120.132812 288.132812 120.25 288.421875 120.398438 C 288.710938 120.550781 288.984375 120.726562 289.238281 120.925781 C 289.492188 121.128906 289.722656 121.355469 289.933594 121.605469 C 290.144531 121.851562 290.328125 122.117188 290.484375 122.402344 C 290.640625 122.6875 290.769531 122.984375 290.871094 123.296875 C 290.96875 123.605469 291.035156 123.921875 291.074219 124.246094 C 291.109375 124.566406 291.113281 124.890625 291.085938 125.214844 C 291.058594 125.539062 291 125.859375 290.910156 126.171875 C 290.820312 126.484375 290.703125 126.785156 290.554688 127.074219 C 290.402344 127.363281 290.226562 127.632812 290.023438 127.886719 C 289.824219 128.144531 289.597656 128.375 289.347656 128.585938 C 289.101562 128.792969 288.832031 128.980469 288.550781 129.136719 C 288.265625 129.292969 287.96875 129.421875 287.65625 129.519531 Z M 259.394531 111.089844 L 272.191406 86.386719 C 272.339844 86.097656 272.460938 85.796875 272.550781 85.484375 C 272.640625 85.171875 272.699219 84.851562 272.726562 84.53125 C 272.753906 84.207031 272.75 83.882812 272.714844 83.558594 C 272.675781 83.234375 272.609375 82.917969 272.511719 82.609375 C 272.414062 82.300781 272.285156 82.003906 272.128906 81.71875 C 271.96875 81.433594 271.785156 81.167969 271.578125 80.917969 C 271.367188 80.671875 271.136719 80.445312 270.882812 80.242188 C 270.628906 80.039062 270.355469 79.863281 270.066406 79.714844 C 269.777344 79.566406 269.476562 79.445312 269.167969 79.355469 C 268.855469 79.265625 268.535156 79.207031 268.210938 79.179688 C 267.886719 79.152344 267.5625 79.15625 267.242188 79.191406 C 266.917969 79.230469 266.601562 79.296875 266.292969 79.394531 C 265.984375 79.496094 265.6875 79.621094 265.402344 79.78125 C 265.117188 79.9375 264.851562 80.121094 264.601562 80.328125 C 264.351562 80.539062 264.128906 80.769531 263.925781 81.023438 C 263.722656 81.28125 263.546875 81.550781 263.398438 81.839844 L 250.601562 106.542969 C 250.449219 106.832031 250.328125 107.132812 250.238281 107.445312 C 250.148438 107.757812 250.089844 108.078125 250.0625 108.402344 C 250.035156 108.726562 250.039062 109.046875 250.074219 109.371094 C 250.109375 109.695312 250.179688 110.011719 250.277344 110.320312 C 250.375 110.632812 250.503906 110.929688 250.660156 111.214844 C 250.820312 111.496094 251.003906 111.765625 251.210938 112.011719 C 251.421875 112.261719 251.65625 112.484375 251.910156 112.6875 C 252.164062 112.890625 252.433594 113.066406 252.722656 113.214844 C 253.453125 113.511719 254.210938 113.640625 254.996094 113.609375 C 255.90625 113.628906 256.753906 113.410156 257.542969 112.957031 C 258.332031 112.503906 258.949219 111.882812 259.394531 111.089844 Z M 297.195312 164.257812 L 272.488281 151.460938 C 272.199219 151.308594 271.898438 151.191406 271.585938 151.101562 C 271.277344 151.011719 270.957031 150.953125 270.632812 150.925781 C 270.308594 150.898438 269.988281 150.90625 269.664062 150.941406 C 269.34375 150.976562 269.027344 151.046875 268.71875 151.144531 C 268.40625 151.242188 268.109375 151.371094 267.828125 151.527344 C 267.542969 151.6875 267.277344 151.871094 267.027344 152.078125 C 266.78125 152.289062 266.554688 152.519531 266.351562 152.773438 C 266.148438 153.027344 265.972656 153.300781 265.824219 153.585938 C 265.675781 153.875 265.558594 154.175781 265.46875 154.488281 C 265.375 154.800781 265.316406 155.117188 265.289062 155.441406 C 265.261719 155.765625 265.265625 156.089844 265.304688 156.410156 C 265.339844 156.734375 265.40625 157.050781 265.503906 157.359375 C 265.601562 157.667969 265.730469 157.964844 265.886719 158.25 C 266.042969 158.535156 266.226562 158.800781 266.4375 159.046875 C 266.644531 159.296875 266.875 159.523438 267.128906 159.726562 C 267.382812 159.929688 267.65625 160.105469 267.941406 160.253906 L 292.648438 173.050781 C 293.363281 173.417969 294.121094 173.597656 294.921875 173.59375 C 295.476562 173.597656 296.015625 173.507812 296.542969 173.328125 C 297.066406 173.148438 297.550781 172.886719 297.984375 172.546875 C 298.421875 172.203125 298.792969 171.796875 299.09375 171.332031 C 299.394531 170.863281 299.609375 170.363281 299.742188 169.824219 C 299.875 169.28125 299.914062 168.738281 299.859375 168.183594 C 299.808594 167.632812 299.664062 167.101562 299.433594 166.597656 C 299.203125 166.09375 298.894531 165.640625 298.511719 165.238281 C 298.128906 164.835938 297.6875 164.507812 297.195312 164.257812 Z M 156.175781 69.140625 C 156.175781 69.597656 156.113281 70.042969 155.984375 70.484375 C 155.859375 70.921875 155.679688 71.335938 155.4375 71.722656 C 155.199219 72.113281 154.910156 72.460938 154.574219 72.769531 C 154.238281 73.078125 153.867188 73.332031 153.457031 73.539062 L 123.8125 88.363281 C 123.113281 88.71875 122.375 88.902344 121.589844 88.90625 C 120.644531 88.910156 119.773438 88.660156 118.96875 88.164062 C 118.246094 87.710938 117.679688 87.113281 117.265625 86.363281 C 116.851562 85.617188 116.644531 84.816406 116.648438 83.964844 L 116.648438 54.316406 C 116.648438 54.109375 116.664062 53.898438 116.691406 53.691406 C 116.71875 53.484375 116.757812 53.277344 116.8125 53.074219 C 116.863281 52.871094 116.929688 52.675781 117.007812 52.480469 C 117.085938 52.285156 117.179688 52.097656 117.28125 51.914062 C 117.382812 51.730469 117.496094 51.554688 117.621094 51.386719 C 117.746094 51.21875 117.882812 51.058594 118.027344 50.90625 C 118.171875 50.757812 118.328125 50.613281 118.492188 50.484375 C 118.65625 50.351562 118.824219 50.230469 119.003906 50.121094 C 119.183594 50.011719 119.367188 49.914062 119.558594 49.828125 C 119.75 49.742188 119.945312 49.667969 120.148438 49.605469 C 120.347656 49.546875 120.550781 49.496094 120.757812 49.460938 C 120.964844 49.425781 121.171875 49.40625 121.382812 49.394531 C 121.589844 49.386719 121.800781 49.390625 122.011719 49.410156 C 122.21875 49.425781 122.425781 49.457031 122.628906 49.503906 C 122.835938 49.546875 123.039062 49.605469 123.234375 49.675781 C 123.433594 49.742188 123.625 49.824219 123.8125 49.921875 L 153.457031 64.742188 C 153.867188 64.949219 154.238281 65.207031 154.574219 65.515625 C 154.910156 65.824219 155.199219 66.171875 155.4375 66.558594 C 155.679688 66.945312 155.859375 67.359375 155.984375 67.796875 C 156.113281 68.238281 156.175781 68.683594 156.175781 69.140625 Z M 140.167969 69.140625 L 126.53125 62.324219 L 126.53125 75.960938 Z M 67.238281 24.671875 L 27.707031 24.671875 C 27.382812 24.671875 27.0625 24.703125 26.746094 24.765625 C 26.425781 24.828125 26.117188 24.921875 25.816406 25.046875 C 25.519531 25.171875 25.234375 25.324219 24.964844 25.503906 C 24.695312 25.683594 24.445312 25.890625 24.214844 26.117188 C 23.984375 26.347656 23.78125 26.597656 23.601562 26.867188 C 23.421875 27.136719 23.269531 27.421875 23.144531 27.722656 C 23.019531 28.023438 22.925781 28.332031 22.863281 28.648438 C 22.800781 28.96875 22.769531 29.289062 22.769531 29.613281 C 22.769531 29.9375 22.800781 30.257812 22.863281 30.578125 C 22.925781 30.894531 23.019531 31.203125 23.144531 31.503906 C 23.269531 31.804688 23.421875 32.089844 23.601562 32.359375 C 23.78125 32.628906 23.984375 32.878906 24.214844 33.105469 C 24.445312 33.335938 24.695312 33.539062 24.964844 33.722656 C 25.234375 33.902344 25.519531 34.054688 25.816406 34.175781 C 26.117188 34.300781 26.425781 34.394531 26.746094 34.457031 C 27.0625 34.523438 27.382812 34.554688 27.707031 34.554688 L 67.238281 34.554688 C 67.5625 34.554688 67.882812 34.523438 68.203125 34.457031 C 68.519531 34.394531 68.828125 34.300781 69.128906 34.175781 C 69.429688 34.054688 69.710938 33.902344 69.980469 33.722656 C 70.253906 33.539062 70.5 33.335938 70.730469 33.105469 C 70.960938 32.878906 71.164062 32.628906 71.34375 32.359375 C 71.527344 32.089844 71.679688 31.804688 71.800781 31.503906 C 71.925781 31.203125 72.019531 30.894531 72.082031 30.578125 C 72.148438 30.257812 72.179688 29.9375 72.179688 29.613281 C 72.179688 29.289062 72.148438 28.96875 72.082031 28.648438 C 72.019531 28.332031 71.925781 28.023438 71.800781 27.722656 C 71.679688 27.421875 71.527344 27.136719 71.34375 26.867188 C 71.164062 26.597656 70.960938 26.347656 70.730469 26.117188 C 70.5 25.890625 70.253906 25.683594 69.980469 25.503906 C 69.710938 25.324219 69.429688 25.171875 69.128906 25.046875 C 68.828125 24.921875 68.519531 24.828125 68.203125 24.765625 C 67.882812 24.703125 67.5625 24.671875 67.238281 24.671875 Z M 67.238281 44.4375 L 27.707031 44.4375 C 27.382812 44.4375 27.0625 44.46875 26.746094 44.53125 C 26.425781 44.59375 26.117188 44.6875 25.816406 44.8125 C 25.519531 44.9375 25.234375 45.089844 24.964844 45.269531 C 24.695312 45.449219 24.445312 45.652344 24.214844 45.882812 C 23.984375 46.113281 23.78125 46.363281 23.601562 46.632812 C 23.421875 46.902344 23.269531 47.1875 23.144531 47.484375 C 23.019531 47.785156 22.925781 48.09375 22.863281 48.414062 C 22.800781 48.730469 22.769531 49.050781 22.769531 49.375 C 22.769531 49.703125 22.800781 50.023438 22.863281 50.339844 C 22.925781 50.660156 23.019531 50.96875 23.144531 51.269531 C 23.269531 51.566406 23.421875 51.851562 23.601562 52.121094 C 23.78125 52.390625 23.984375 52.640625 24.214844 52.871094 C 24.445312 53.101562 24.695312 53.304688 24.964844 53.484375 C 25.234375 53.664062 25.519531 53.816406 25.816406 53.941406 C 26.117188 54.066406 26.425781 54.160156 26.746094 54.222656 C 27.0625 54.285156 27.382812 54.316406 27.707031 54.316406 L 67.238281 54.316406 C 67.5625 54.316406 67.882812 54.285156 68.203125 54.222656 C 68.519531 54.160156 68.828125 54.066406 69.128906 53.941406 C 69.429688 53.816406 69.710938 53.664062 69.980469 53.484375 C 70.253906 53.304688 70.5 53.101562 70.730469 52.871094 C 70.960938 52.640625 71.164062 52.390625 71.34375 52.121094 C 71.527344 51.851562 71.679688 51.566406 71.800781 51.269531 C 71.925781 50.96875 72.019531 50.660156 72.082031 50.339844 C 72.148438 50.023438 72.179688 49.703125 72.179688 49.375 C 72.179688 49.050781 72.148438 48.730469 72.082031 48.414062 C 72.019531 48.09375 71.925781 47.785156 71.800781 47.484375 C 71.679688 47.1875 71.527344 46.902344 71.34375 46.632812 C 71.164062 46.363281 70.960938 46.113281 70.730469 45.882812 C 70.5 45.652344 70.253906 45.449219 69.980469 45.269531 C 69.710938 45.089844 69.429688 44.9375 69.128906 44.8125 C 68.828125 44.6875 68.519531 44.59375 68.203125 44.53125 C 67.882812 44.46875 67.5625 44.4375 67.238281 44.4375 Z M 67.238281 64.199219 L 27.707031 64.199219 C 27.382812 64.199219 27.0625 64.230469 26.746094 64.296875 C 26.425781 64.359375 26.117188 64.453125 25.816406 64.574219 C 25.519531 64.699219 25.234375 64.851562 24.964844 65.03125 C 24.695312 65.214844 24.445312 65.417969 24.214844 65.648438 C 23.984375 65.875 23.78125 66.125 23.601562 66.394531 C 23.421875 66.664062 23.269531 66.949219 23.144531 67.25 C 23.019531 67.550781 22.925781 67.859375 22.863281 68.175781 C 22.800781 68.496094 22.769531 68.816406 22.769531 69.140625 C 22.769531 69.464844 22.800781 69.785156 22.863281 70.105469 C 22.925781 70.421875 23.019531 70.730469 23.144531 71.03125 C 23.269531 71.332031 23.421875 71.617188 23.601562 71.886719 C 23.78125 72.15625 23.984375 72.40625 24.214844 72.636719 C 24.445312 72.863281 24.695312 73.070312 24.964844 73.25 C 25.234375 73.429688 25.519531 73.582031 25.816406 73.707031 C 26.117188 73.832031 26.425781 73.925781 26.746094 73.988281 C 27.0625 74.050781 27.382812 74.082031 27.707031 74.082031 L 67.238281 74.082031 C 67.5625 74.082031 67.882812 74.050781 68.203125 73.988281 C 68.519531 73.925781 68.828125 73.832031 69.128906 73.707031 C 69.429688 73.582031 69.710938 73.429688 69.980469 73.25 C 70.253906 73.070312 70.5 72.863281 70.730469 72.636719 C 70.960938 72.40625 71.164062 72.15625 71.34375 71.886719 C 71.527344 71.617188 71.679688 71.332031 71.800781 71.03125 C 71.925781 70.730469 72.019531 70.421875 72.082031 70.105469 C 72.148438 69.785156 72.179688 69.464844 72.179688 69.140625 C 72.179688 68.816406 72.148438 68.496094 72.082031 68.175781 C 72.019531 67.859375 71.925781 67.550781 71.800781 67.25 C 71.679688 66.949219 71.527344 66.664062 71.34375 66.394531 C 71.164062 66.125 70.960938 65.875 70.730469 65.648438 C 70.5 65.417969 70.253906 65.214844 69.980469 65.03125 C 69.710938 64.851562 69.429688 64.699219 69.128906 64.574219 C 68.828125 64.453125 68.519531 64.359375 68.203125 64.296875 C 67.882812 64.230469 67.5625 64.199219 67.238281 64.199219 Z M 231.082031 156.105469 L 226.140625 157.535156 L 241.953125 209.566406 C 242.167969 210.300781 242.210938 211.046875 242.082031 211.800781 C 241.953125 212.558594 241.660156 213.246094 241.210938 213.863281 C 240.765625 214.492188 240.203125 214.988281 239.527344 215.351562 C 238.851562 215.71875 238.125 215.914062 237.359375 215.941406 L 216.902344 216.632812 L 85.371094 221.078125 L 99.652344 268.214844 C 99.929688 269.136719 100.152344 270.066406 100.324219 271.011719 C 100.492188 271.957031 100.605469 272.910156 100.667969 273.867188 C 100.726562 274.828125 100.726562 275.785156 100.675781 276.746094 C 100.621094 277.703125 100.511719 278.65625 100.347656 279.605469 C 100.183594 280.550781 99.964844 281.484375 99.691406 282.40625 C 99.417969 283.324219 99.09375 284.226562 98.714844 285.109375 C 98.335938 285.992188 97.910156 286.851562 97.429688 287.683594 C 96.953125 288.515625 96.429688 289.320312 95.855469 290.089844 C 95.285156 290.863281 94.667969 291.597656 94.011719 292.296875 C 93.355469 292.996094 92.65625 293.65625 91.921875 294.277344 C 91.1875 294.894531 90.421875 295.46875 89.617188 295.996094 C 88.816406 296.527344 87.988281 297.007812 87.128906 297.441406 C 86.273438 297.871094 85.394531 298.253906 84.492188 298.582031 C 83.589844 298.914062 82.671875 299.191406 81.734375 299.414062 C 80.800781 299.636719 79.859375 299.804688 78.902344 299.914062 C 77.949219 300.027344 76.992188 300.085938 76.03125 300.085938 C 74.714844 300.085938 73.410156 299.980469 72.109375 299.769531 C 70.8125 299.558594 69.539062 299.246094 68.289062 298.832031 C 67.039062 298.417969 65.832031 297.910156 64.664062 297.300781 C 63.496094 296.695312 62.382812 296 61.328125 295.214844 C 60.269531 294.429688 59.285156 293.566406 58.367188 292.625 C 57.445312 291.683594 56.609375 290.671875 55.851562 289.597656 C 55.09375 288.519531 54.429688 287.390625 53.851562 286.207031 C 53.273438 285.027344 52.796875 283.804688 52.414062 282.546875 L 37.589844 232.195312 C 36.46875 232.085938 35.351562 231.925781 34.238281 231.71875 C 33.128906 231.511719 32.03125 231.257812 30.941406 230.957031 C 29.851562 230.65625 28.777344 230.308594 27.71875 229.914062 C 26.660156 229.523438 25.621094 229.085938 24.597656 228.601562 C 23.578125 228.121094 22.578125 227.59375 21.601562 227.027344 C 20.625 226.460938 19.675781 225.851562 18.753906 225.203125 C 17.828125 224.550781 16.933594 223.863281 16.066406 223.136719 C 15.203125 222.410156 14.371094 221.648438 13.570312 220.851562 C 12.769531 220.054688 12.007812 219.226562 11.277344 218.363281 C 10.550781 217.5 9.859375 216.605469 9.207031 215.683594 C 8.554688 214.761719 7.941406 213.8125 7.371094 212.839844 C 6.800781 211.863281 6.273438 210.867188 5.785156 209.847656 C 5.300781 208.828125 4.859375 207.789062 4.464844 206.730469 C 4.066406 205.671875 3.71875 204.601562 3.414062 203.511719 C 3.109375 202.425781 2.851562 201.328125 2.640625 200.21875 C 2.429688 199.109375 2.269531 197.992188 2.152344 196.867188 C 2.039062 195.742188 1.972656 194.617188 1.953125 193.488281 C 1.9375 192.359375 1.96875 191.230469 2.046875 190.101562 C 2.125 188.976562 2.25 187.855469 2.425781 186.738281 C 2.601562 185.625 2.824219 184.515625 3.09375 183.421875 C 3.363281 182.324219 3.679688 181.242188 4.042969 180.171875 C 4.40625 179.101562 4.8125 178.046875 5.265625 177.015625 C 5.71875 175.980469 6.214844 174.964844 6.753906 173.972656 C 7.292969 172.980469 7.875 172.015625 8.496094 171.070312 C 9.121094 170.128906 9.78125 169.214844 10.480469 168.328125 C 11.183594 167.445312 11.921875 166.589844 12.695312 165.765625 C 13.46875 164.945312 14.277344 164.15625 15.117188 163.402344 C 15.960938 162.648438 16.832031 161.933594 17.734375 161.257812 C 18.636719 160.578125 19.570312 159.9375 20.527344 159.339844 C 21.484375 158.742188 22.464844 158.183594 23.472656 157.671875 C 24.476562 157.15625 25.503906 156.683594 26.546875 156.257812 C 27.59375 155.832031 28.65625 155.449219 29.734375 155.117188 L 62.148438 145.234375 L 121.441406 108.472656 L 96.734375 108.472656 C 95.777344 108.460938 94.828125 108.359375 93.886719 108.167969 C 92.949219 107.972656 92.039062 107.691406 91.152344 107.320312 C 90.269531 106.949219 89.429688 106.5 88.632812 105.964844 C 87.835938 105.429688 87.097656 104.824219 86.417969 104.148438 C 85.738281 103.472656 85.132812 102.734375 84.59375 101.941406 C 84.058594 101.144531 83.605469 100.308594 83.230469 99.425781 C 82.855469 98.542969 82.570312 97.628906 82.375 96.691406 C 82.179688 95.753906 82.074219 94.804688 82.058594 93.847656 L 68.570312 93.847656 L 35.121094 112.96875 C 34.355469 113.402344 33.53125 113.617188 32.648438 113.609375 C 31.757812 113.628906 30.933594 113.398438 30.179688 112.917969 C 29.417969 112.480469 28.820312 111.882812 28.378906 111.125 C 27.9375 110.363281 27.714844 109.546875 27.707031 108.667969 L 27.707031 93.847656 L 17.828125 93.847656 C 16.851562 93.847656 15.890625 93.75 14.933594 93.5625 C 13.980469 93.371094 13.054688 93.089844 12.152344 92.71875 C 11.253906 92.34375 10.402344 91.890625 9.589844 91.347656 C 8.78125 90.808594 8.035156 90.191406 7.34375 89.503906 C 6.65625 88.816406 6.042969 88.066406 5.5 87.257812 C 4.960938 86.449219 4.503906 85.59375 4.132812 84.695312 C 3.757812 83.796875 3.476562 82.871094 3.289062 81.914062 C 3.097656 80.960938 3.003906 79.996094 3.003906 79.023438 L 3.003906 19.730469 C 3.003906 18.757812 3.097656 17.792969 3.289062 16.839844 C 3.476562 15.882812 3.757812 14.957031 4.132812 14.058594 C 4.503906 13.160156 4.960938 12.304688 5.5 11.496094 C 6.042969 10.6875 6.65625 9.9375 7.34375 9.25 C 8.035156 8.5625 8.78125 7.945312 9.589844 7.40625 C 10.402344 6.863281 11.253906 6.410156 12.152344 6.035156 C 13.054688 5.664062 13.980469 5.382812 14.933594 5.191406 C 15.890625 5.003906 16.851562 4.90625 17.828125 4.90625 L 111.707031 4.90625 C 112.679688 4.90625 113.644531 5.003906 114.597656 5.191406 C 115.554688 5.382812 116.480469 5.664062 117.378906 6.035156 C 118.277344 6.410156 119.132812 6.863281 119.941406 7.40625 C 120.75 7.945312 121.5 8.5625 122.1875 9.25 C 122.875 9.9375 123.492188 10.6875 124.03125 11.496094 C 124.574219 12.304688 125.027344 13.160156 125.402344 14.058594 C 125.773438 14.957031 126.054688 15.882812 126.246094 16.839844 C 126.433594 17.792969 126.53125 18.757812 126.53125 19.730469 L 126.53125 29.613281 L 166.601562 29.613281 C 167.550781 29.648438 168.492188 29.773438 169.417969 29.988281 C 170.34375 30.203125 171.238281 30.503906 172.109375 30.894531 C 172.976562 31.28125 173.800781 31.75 174.578125 32.296875 C 175.355469 32.839844 176.074219 33.457031 176.734375 34.140625 C 177.394531 34.828125 177.980469 35.566406 178.5 36.367188 C 179.015625 37.164062 179.453125 38.003906 179.808594 38.886719 C 180.164062 39.769531 180.429688 40.675781 180.613281 41.609375 C 180.792969 42.542969 180.882812 43.484375 180.882812 44.4375 L 180.882812 71.660156 L 191.75 64.941406 C 192.074219 64.738281 192.414062 64.574219 192.777344 64.453125 C 193.136719 64.328125 193.503906 64.246094 193.882812 64.210938 C 194.261719 64.171875 194.640625 64.175781 195.019531 64.226562 C 195.394531 64.273438 195.761719 64.367188 196.117188 64.5 C 196.476562 64.632812 196.8125 64.804688 197.128906 65.019531 C 197.445312 65.230469 197.734375 65.476562 197.992188 65.753906 C 198.253906 66.03125 198.476562 66.335938 198.667969 66.664062 C 198.855469 66.996094 199.003906 67.34375 199.113281 67.707031 L 214.875 119.738281 L 219.816406 118.304688 C 220.445312 118.085938 221.078125 117.902344 221.726562 117.75 C 222.371094 117.597656 223.023438 117.476562 223.679688 117.390625 C 224.335938 117.304688 224.996094 117.25 225.660156 117.226562 C 226.324219 117.207031 226.984375 117.21875 227.648438 117.265625 C 228.308594 117.3125 228.964844 117.390625 229.621094 117.503906 C 230.273438 117.617188 230.917969 117.761719 231.558594 117.9375 C 232.199219 118.113281 232.828125 118.324219 233.445312 118.5625 C 234.0625 118.804688 234.667969 119.074219 235.257812 119.375 C 235.847656 119.679688 236.421875 120.007812 236.980469 120.367188 C 237.539062 120.726562 238.078125 121.113281 238.59375 121.527344 C 239.113281 121.941406 239.609375 122.378906 240.085938 122.839844 C 240.558594 123.304688 241.007812 123.789062 241.433594 124.300781 C 241.859375 124.808594 242.257812 125.335938 242.632812 125.886719 C 243.003906 126.433594 243.347656 127 243.664062 127.582031 C 243.980469 128.167969 244.265625 128.765625 244.519531 129.378906 C 244.773438 129.988281 245 130.613281 245.191406 131.246094 C 245.382812 131.882812 245.542969 132.523438 245.671875 133.175781 C 245.800781 133.828125 245.894531 134.480469 245.957031 135.140625 C 246.019531 135.800781 246.046875 136.464844 246.042969 137.128906 C 246.035156 137.789062 246 138.453125 245.925781 139.109375 C 245.855469 139.769531 245.75 140.425781 245.613281 141.074219 C 245.476562 141.722656 245.308594 142.363281 245.105469 142.996094 C 244.902344 143.625 244.671875 144.246094 244.40625 144.855469 C 244.144531 145.464844 243.847656 146.054688 243.523438 146.636719 C 243.199219 147.214844 242.847656 147.773438 242.46875 148.320312 C 242.089844 148.863281 241.679688 149.382812 241.25 149.886719 C 240.816406 150.390625 240.359375 150.867188 239.875 151.324219 C 239.394531 151.78125 238.894531 152.210938 238.367188 152.617188 C 237.84375 153.023438 237.300781 153.402344 236.738281 153.753906 C 236.175781 154.105469 235.59375 154.425781 235 154.71875 C 234.40625 155.011719 233.796875 155.273438 233.175781 155.503906 C 232.554688 155.734375 231.921875 155.9375 231.28125 156.105469 Z M 82.058594 83.964844 L 82.058594 44.4375 C 82.058594 43.484375 82.148438 42.542969 82.332031 41.609375 C 82.511719 40.675781 82.777344 39.769531 83.132812 38.886719 C 83.488281 38.003906 83.925781 37.164062 84.441406 36.367188 C 84.960938 35.566406 85.546875 34.828125 86.207031 34.140625 C 86.867188 33.457031 87.585938 32.839844 88.363281 32.296875 C 89.144531 31.75 89.964844 31.28125 90.835938 30.894531 C 91.703125 30.503906 92.597656 30.203125 93.527344 29.988281 C 94.453125 29.773438 95.390625 29.648438 96.339844 29.613281 L 116.648438 29.613281 L 116.648438 19.730469 C 116.648438 19.40625 116.617188 19.085938 116.554688 18.765625 C 116.488281 18.449219 116.394531 18.140625 116.273438 17.839844 C 116.148438 17.539062 115.996094 17.253906 115.816406 16.984375 C 115.636719 16.714844 115.429688 16.464844 115.199219 16.238281 C 114.972656 16.007812 114.722656 15.800781 114.453125 15.621094 C 114.183594 15.441406 113.898438 15.289062 113.597656 15.164062 C 113.296875 15.042969 112.988281 14.949219 112.671875 14.882812 C 112.351562 14.820312 112.03125 14.789062 111.707031 14.789062 L 17.828125 14.789062 C 17.503906 14.789062 17.179688 14.820312 16.863281 14.882812 C 16.542969 14.949219 16.234375 15.042969 15.9375 15.164062 C 15.636719 15.289062 15.351562 15.441406 15.082031 15.621094 C 14.8125 15.800781 14.5625 16.007812 14.332031 16.238281 C 14.101562 16.464844 13.898438 16.714844 13.71875 16.984375 C 13.539062 17.253906 13.386719 17.539062 13.261719 17.839844 C 13.136719 18.140625 13.042969 18.449219 12.980469 18.765625 C 12.917969 19.085938 12.886719 19.40625 12.886719 19.730469 L 12.886719 79.023438 C 12.886719 79.347656 12.917969 79.667969 12.980469 79.988281 C 13.042969 80.304688 13.136719 80.613281 13.261719 80.914062 C 13.386719 81.214844 13.539062 81.5 13.71875 81.769531 C 13.898438 82.039062 14.101562 82.289062 14.332031 82.515625 C 14.5625 82.746094 14.8125 82.953125 15.082031 83.132812 C 15.351562 83.3125 15.636719 83.464844 15.9375 83.589844 C 16.234375 83.710938 16.542969 83.804688 16.863281 83.871094 C 17.179688 83.933594 17.503906 83.964844 17.828125 83.964844 L 32.648438 83.964844 C 32.972656 83.964844 33.296875 83.996094 33.613281 84.058594 C 33.933594 84.121094 34.242188 84.214844 34.539062 84.339844 C 34.839844 84.464844 35.125 84.617188 35.394531 84.796875 C 35.664062 84.976562 35.914062 85.183594 36.144531 85.410156 C 36.375 85.640625 36.578125 85.890625 36.757812 86.160156 C 36.9375 86.429688 37.089844 86.714844 37.214844 87.015625 C 37.339844 87.3125 37.433594 87.625 37.496094 87.941406 C 37.558594 88.257812 37.589844 88.582031 37.589844 88.90625 L 37.589844 100.171875 L 64.765625 84.605469 C 65.539062 84.191406 66.363281 83.976562 67.238281 83.964844 Z M 137.152344 98.789062 L 171 77.789062 L 171 44.4375 C 171.003906 43.824219 170.898438 43.234375 170.683594 42.664062 C 170.464844 42.089844 170.15625 41.578125 169.75 41.121094 C 169.34375 40.664062 168.867188 40.296875 168.328125 40.015625 C 167.785156 39.734375 167.210938 39.5625 166.601562 39.496094 L 96.339844 39.496094 C 95.734375 39.5625 95.160156 39.734375 94.617188 40.015625 C 94.074219 40.296875 93.597656 40.664062 93.191406 41.121094 C 92.785156 41.578125 92.476562 42.089844 92.261719 42.664062 C 92.042969 43.234375 91.9375 43.824219 91.941406 44.4375 L 91.941406 93.847656 C 91.9375 94.457031 92.042969 95.046875 92.261719 95.621094 C 92.476562 96.191406 92.785156 96.707031 93.191406 97.160156 C 93.597656 97.617188 94.074219 97.984375 94.617188 98.265625 C 95.160156 98.546875 95.734375 98.71875 96.339844 98.789062 Z M 41.050781 222.757812 C 43.945312 222.746094 46.777344 222.316406 49.546875 221.472656 L 77.910156 212.875 L 60.664062 156.152344 L 32.351562 164.75 C 31.511719 165.007812 30.683594 165.300781 29.867188 165.628906 C 29.050781 165.960938 28.25 166.324219 27.46875 166.726562 C 26.683594 167.128906 25.921875 167.5625 25.175781 168.035156 C 24.429688 168.503906 23.707031 169.003906 23.007812 169.539062 C 22.308594 170.070312 21.632812 170.636719 20.984375 171.230469 C 20.335938 171.824219 19.714844 172.445312 19.117188 173.09375 C 18.523438 173.742188 17.960938 174.417969 17.425781 175.117188 C 16.890625 175.816406 16.390625 176.539062 15.917969 177.28125 C 15.449219 178.027344 15.011719 178.789062 14.613281 179.574219 C 14.210938 180.355469 13.84375 181.15625 13.511719 181.972656 C 13.179688 182.789062 12.886719 183.617188 12.628906 184.457031 C 12.375 185.300781 12.15625 186.152344 11.972656 187.011719 C 11.792969 187.875 11.648438 188.742188 11.546875 189.617188 C 11.441406 190.488281 11.378906 191.367188 11.351562 192.246094 C 11.328125 193.125 11.339844 194.003906 11.390625 194.882812 C 11.445312 195.761719 11.535156 196.636719 11.667969 197.507812 C 11.796875 198.378906 11.964844 199.242188 12.175781 200.097656 C 12.382812 200.953125 12.625 201.796875 12.910156 202.628906 C 13.191406 203.464844 13.511719 204.28125 13.867188 205.089844 C 14.222656 205.894531 14.613281 206.679688 15.039062 207.453125 C 15.464844 208.222656 15.921875 208.972656 16.414062 209.699219 C 16.90625 210.429688 17.433594 211.136719 17.988281 211.820312 C 18.542969 212.503906 19.128906 213.160156 19.742188 213.789062 C 20.355469 214.421875 20.996094 215.023438 21.664062 215.597656 C 22.332031 216.171875 23.023438 216.714844 23.738281 217.226562 C 24.453125 217.738281 25.191406 218.214844 25.949219 218.664062 C 26.707031 219.109375 27.484375 219.519531 28.28125 219.898438 C 29.074219 220.277344 29.886719 220.617188 30.710938 220.921875 C 31.539062 221.226562 32.375 221.496094 33.226562 221.726562 C 34.074219 221.957031 34.933594 222.148438 35.800781 222.300781 C 36.664062 222.457031 37.539062 222.570312 38.414062 222.648438 C 39.292969 222.722656 40.167969 222.761719 41.050781 222.757812 Z M 90.460938 271.082031 L 76.03125 223.796875 L 52.414062 230.960938 C 50.785156 231.40625 49.203125 231.75 47.472656 232.046875 L 61.902344 279.679688 C 62.183594 280.613281 62.554688 281.511719 63.015625 282.371094 C 63.472656 283.230469 64.011719 284.039062 64.632812 284.792969 C 65.25 285.546875 65.9375 286.234375 66.691406 286.851562 C 67.445312 287.46875 68.253906 288.007812 69.113281 288.46875 C 69.972656 288.925781 70.871094 289.296875 71.804688 289.578125 C 72.738281 289.859375 73.691406 290.046875 74.664062 290.140625 C 75.632812 290.238281 76.605469 290.234375 77.574219 290.136719 C 78.546875 290.039062 79.496094 289.847656 80.429688 289.5625 C 81.359375 289.277344 82.253906 288.910156 83.113281 288.449219 C 83.972656 287.992188 84.777344 287.453125 85.527344 286.835938 C 86.28125 286.21875 86.964844 285.535156 87.582031 284.78125 C 88.199219 284.03125 88.738281 283.226562 89.195312 282.367188 C 89.65625 281.507812 90.027344 280.613281 90.308594 279.683594 C 90.589844 278.753906 90.78125 277.804688 90.875 276.835938 C 90.972656 275.867188 90.972656 274.898438 90.878906 273.929688 C 90.78125 272.960938 90.59375 272.011719 90.3125 271.082031 Z M 210.527344 206.945312 L 174.113281 87.523438 L 69.808594 152.152344 L 87.691406 211.097656 Z M 231.035156 206.253906 L 191.503906 76.75 L 182.808594 82.136719 L 220.410156 206.601562 Z M 228.414062 146.667969 C 229.679688 146.265625 230.816406 145.640625 231.828125 144.78125 C 232.835938 143.925781 233.644531 142.90625 234.246094 141.726562 C 234.882812 140.570312 235.265625 139.335938 235.394531 138.023438 C 235.523438 136.707031 235.386719 135.421875 234.984375 134.164062 C 234.796875 133.546875 234.550781 132.953125 234.242188 132.382812 C 233.9375 131.8125 233.578125 131.277344 233.167969 130.777344 C 232.753906 130.277344 232.300781 129.820312 231.800781 129.410156 C 231.296875 129 230.761719 128.644531 230.191406 128.339844 C 229.621094 128.035156 229.027344 127.785156 228.40625 127.597656 C 227.785156 127.410156 227.15625 127.285156 226.511719 127.222656 C 225.867188 127.15625 225.222656 127.15625 224.578125 127.21875 C 223.933594 127.28125 223.300781 127.40625 222.683594 127.59375 L 217.742188 129.027344 L 223.472656 148.199219 Z M 228.414062 146.667969 "/></g></g></svg>