<svg xmlns="http://www.w3.org/2000/svg" xmlns:xlink="http://www.w3.org/1999/xlink" width="400" zoomAndPan="magnify" viewBox="0 0 300 307.91998" height="400" preserveAspectRatio="xMidYMid meet" version="1.2"><defs><clipPath id="151e194fb5"><path d="M 0.0390625 94 L 143 94 L 143 206 L 0.0390625 206 Z M 0.0390625 94 "/></clipPath><clipPath id="9f0e62f43a"><path d="M 265 229 L 299.960938 229 L 299.960938 286 L 265 286 Z M 265 229 "/></clipPath></defs><g id="a5fd7fb49b"><path style=" stroke:none;fill-rule:evenodd;fill:#dedcce;fill-opacity:1;" d="M 253.574219 296.933594 L 80.160156 296.933594 C 73.128906 296.933594 67.332031 290.960938 67.332031 283.933594 L 67.332031 275.851562 C 67.332031 273.917969 68.914062 272.335938 70.847656 272.335938 C 72.777344 272.335938 74.359375 273.917969 74.359375 275.851562 L 74.359375 283.933594 C 74.359375 287.097656 76.996094 289.90625 80.160156 289.90625 L 253.574219 289.90625 C 256.738281 289.90625 259.375 287.097656 259.375 283.933594 L 259.375 281.824219 C 259.375 279.890625 260.957031 278.3125 262.886719 278.3125 C 264.820312 278.3125 266.402344 279.890625 266.402344 281.824219 L 266.402344 283.933594 C 266.402344 290.960938 260.605469 296.933594 253.574219 296.933594 Z M 70.847656 242.117188 C 68.914062 242.117188 67.332031 240.535156 67.332031 238.601562 L 67.332031 201.53125 C 67.332031 199.597656 68.914062 198.015625 70.847656 198.015625 C 72.777344 198.015625 74.359375 199.597656 74.359375 201.53125 L 74.359375 238.601562 C 74.359375 240.535156 72.777344 242.117188 70.847656 242.117188 Z M 262.886719 236.140625 C 260.957031 236.140625 259.375 234.5625 259.375 232.628906 L 259.375 15.988281 C 259.375 12.652344 256.738281 10.015625 253.574219 10.015625 L 80.160156 10.015625 C 76.996094 10.015625 74.359375 12.652344 74.359375 15.988281 L 74.359375 98.394531 C 74.359375 100.324219 72.777344 101.90625 70.847656 101.90625 C 68.914062 101.90625 67.332031 100.324219 67.332031 98.394531 L 67.332031 15.988281 C 67.332031 8.785156 73.128906 2.988281 80.160156 2.988281 L 253.574219 2.988281 C 260.605469 2.988281 266.402344 8.785156 266.402344 15.988281 L 266.402344 232.628906 C 266.402344 234.5625 264.820312 236.140625 262.886719 236.140625 Z M 262.886719 236.140625 "/><path style=" stroke:none;fill-rule:evenodd;fill:#dedcce;fill-opacity:1;" d="M 241.453125 191.515625 L 159.925781 191.515625 C 157.996094 191.515625 156.414062 189.933594 156.414062 188 L 156.414062 151.980469 C 156.414062 150.050781 157.996094 148.46875 159.925781 148.46875 L 241.453125 148.46875 C 243.386719 148.46875 244.964844 150.050781 244.964844 151.980469 L 244.964844 188 C 244.964844 189.933594 243.386719 191.515625 241.453125 191.515625 Z M 163.441406 184.484375 L 237.9375 184.484375 L 237.9375 155.496094 L 163.441406 155.496094 Z M 163.441406 184.484375 "/><path style=" stroke:none;fill-rule:evenodd;fill:#dedcce;fill-opacity:1;" d="M 228.800781 110.867188 L 172.578125 110.867188 C 170.644531 110.867188 169.0625 109.285156 169.0625 107.351562 C 169.0625 105.421875 170.644531 103.839844 172.578125 103.839844 L 228.800781 103.839844 C 230.734375 103.839844 232.316406 105.421875 232.316406 107.351562 C 232.316406 109.285156 230.734375 110.867188 228.800781 110.867188 Z M 228.800781 110.867188 "/><path style=" stroke:none;fill-rule:evenodd;fill:#dedcce;fill-opacity:1;" d="M 241.277344 133.003906 L 160.101562 133.003906 C 158.171875 133.003906 156.589844 131.425781 156.589844 129.492188 C 156.589844 127.558594 158.171875 125.976562 160.101562 125.976562 L 241.277344 125.976562 C 243.210938 125.976562 244.789062 127.558594 244.789062 129.492188 C 244.789062 131.425781 243.210938 133.003906 241.277344 133.003906 Z M 241.277344 133.003906 "/><g clip-rule="nonzero" clip-path="url(#151e194fb5)"><path style=" stroke:none;fill-rule:evenodd;fill:#dedcce;fill-opacity:1;" d="M 131.289062 205.042969 L 10.757812 205.042969 C 4.78125 205.042969 0.0390625 200.125 0.0390625 194.324219 L 0.0390625 105.597656 C 0.0390625 99.621094 4.78125 94.878906 10.757812 94.878906 L 131.289062 94.878906 C 137.261719 94.878906 142.003906 99.621094 142.003906 105.597656 L 142.003906 194.324219 C 142.003906 200.125 137.085938 205.042969 131.289062 205.042969 Z M 10.757812 101.90625 C 8.648438 101.90625 7.066406 103.488281 7.066406 105.597656 L 7.066406 194.324219 C 7.066406 196.257812 8.824219 198.015625 10.757812 198.015625 L 131.289062 198.015625 C 133.21875 198.015625 134.976562 196.257812 134.976562 194.324219 L 134.976562 105.597656 C 134.976562 103.664062 133.21875 101.90625 131.289062 101.90625 Z M 10.757812 101.90625 "/></g><path style=" stroke:none;fill-rule:evenodd;fill:#dedcce;fill-opacity:1;" d="M 51.519531 167.792969 C 50.992188 167.792969 50.464844 167.617188 49.9375 167.269531 C 48.707031 166.742188 48.003906 165.511719 48.003906 164.28125 L 48.003906 112.625 C 48.003906 111.21875 48.707031 110.164062 49.9375 109.460938 C 50.992188 108.757812 52.398438 108.933594 53.453125 109.636719 L 92.457031 135.464844 C 93.511719 136.167969 94.039062 137.222656 94.039062 138.453125 C 94.039062 139.507812 93.511719 140.738281 92.457031 141.265625 L 53.453125 167.09375 C 52.925781 167.617188 52.222656 167.792969 51.519531 167.792969 Z M 55.035156 119.125 L 55.035156 157.605469 L 84.199219 138.453125 Z M 55.035156 119.125 "/><path style=" stroke:none;fill-rule:evenodd;fill:#dedcce;fill-opacity:1;" d="M 93.511719 181.324219 L 26.921875 181.324219 C 24.988281 181.324219 23.40625 179.742188 23.40625 177.808594 C 23.40625 175.878906 24.988281 174.296875 26.921875 174.296875 L 93.511719 174.296875 C 95.445312 174.296875 97.027344 175.878906 97.027344 177.808594 C 97.027344 179.742188 95.445312 181.324219 93.511719 181.324219 Z M 93.511719 181.324219 "/><path style=" stroke:none;fill-rule:evenodd;fill:#dedcce;fill-opacity:1;" d="M 115.125 182.554688 L 109.675781 182.554688 C 107.742188 182.554688 106.164062 180.972656 106.164062 179.039062 C 106.164062 177.105469 107.742188 175.527344 109.675781 175.527344 L 115.125 175.527344 C 117.054688 175.527344 118.636719 177.105469 118.636719 179.039062 C 118.636719 180.972656 117.054688 182.554688 115.125 182.554688 Z M 115.125 182.554688 "/><path style=" stroke:none;fill-rule:evenodd;fill:#dedcce;fill-opacity:1;" d="M 120.921875 64.480469 L 102.296875 64.480469 C 97.027344 64.480469 92.632812 60.089844 92.632812 54.820312 L 92.632812 40.585938 C 92.632812 35.316406 97.027344 30.921875 102.296875 30.921875 L 120.921875 30.921875 C 122.855469 30.921875 124.433594 32.503906 124.433594 34.4375 C 124.433594 36.371094 122.855469 37.953125 120.921875 37.953125 L 102.296875 37.953125 C 100.890625 37.953125 99.660156 39.179688 99.660156 40.585938 L 99.660156 54.820312 C 99.660156 56.222656 100.890625 57.453125 102.296875 57.453125 L 120.921875 57.453125 C 122.855469 57.453125 124.433594 59.035156 124.433594 60.96875 C 124.433594 62.902344 122.855469 64.480469 120.921875 64.480469 Z M 120.921875 64.480469 "/><path style=" stroke:none;fill-rule:evenodd;fill:#dedcce;fill-opacity:1;" d="M 134.273438 64.480469 L 120.921875 64.480469 C 118.988281 64.480469 117.40625 62.902344 117.40625 60.96875 L 117.40625 34.4375 C 117.40625 32.503906 118.988281 30.921875 120.921875 30.921875 L 134.273438 30.921875 C 136.207031 30.921875 137.789062 32.503906 137.789062 34.4375 C 137.789062 36.371094 136.207031 37.953125 134.273438 37.953125 L 124.433594 37.953125 L 124.433594 57.453125 L 134.273438 57.453125 C 136.207031 57.453125 137.789062 59.035156 137.789062 60.96875 C 137.789062 62.902344 136.207031 64.480469 134.273438 64.480469 Z M 134.273438 64.480469 "/><path style=" stroke:none;fill-rule:evenodd;fill:#dedcce;fill-opacity:1;" d="M 166.078125 79.945312 C 165.550781 79.945312 165.023438 79.769531 164.496094 79.59375 L 131.816406 64.132812 C 130.410156 63.429688 129.53125 61.847656 129.882812 60.265625 C 130.058594 59.5625 130.234375 59.035156 130.761719 58.683594 L 130.761719 36.722656 C 130.234375 36.371094 130.058594 35.84375 129.882812 35.140625 C 129.53125 33.558594 130.410156 31.976562 131.816406 31.273438 L 164.496094 15.8125 C 165.726562 15.285156 166.957031 15.460938 168.007812 15.988281 C 168.886719 16.691406 169.589844 17.746094 169.589844 18.976562 L 169.589844 76.429688 C 169.589844 77.660156 168.886719 78.890625 168.007812 79.417969 C 167.304688 79.769531 166.78125 79.945312 166.078125 79.945312 Z M 137.789062 59.210938 L 162.5625 70.808594 L 162.5625 24.597656 L 137.789062 36.195312 Z M 137.789062 59.210938 "/><path style=" stroke:none;fill-rule:evenodd;fill:#dedcce;fill-opacity:1;" d="M 115.652344 91.890625 C 111.433594 91.890625 107.917969 89.609375 106.691406 85.742188 C 106.691406 85.742188 106.691406 85.742188 106.691406 85.566406 L 100.011719 61.847656 C 99.484375 60.089844 100.539062 58.15625 102.472656 57.628906 C 104.230469 57.101562 106.164062 58.15625 106.691406 59.914062 L 113.367188 83.632812 C 113.71875 84.6875 115.125 85.214844 116.527344 84.6875 C 116.527344 84.6875 116.527344 84.6875 116.703125 84.6875 C 117.582031 84.511719 118.109375 83.984375 118.460938 83.457031 C 118.460938 83.457031 118.636719 83.105469 118.636719 82.929688 L 112.664062 61.847656 C 112.136719 59.914062 113.191406 57.980469 114.949219 57.453125 C 116.878906 56.925781 118.8125 57.980469 119.339844 59.914062 L 125.3125 81 C 125.839844 83.105469 125.488281 85.214844 124.433594 87.148438 C 123.03125 89.257812 120.746094 90.835938 118.109375 91.539062 C 117.40625 91.890625 116.527344 91.890625 115.652344 91.890625 Z M 115.652344 91.890625 "/><path style=" stroke:none;fill-rule:evenodd;fill:#dedcce;fill-opacity:1;" d="M 172.050781 79.945312 L 166.078125 79.945312 C 164.144531 79.945312 162.5625 78.363281 162.5625 76.429688 C 162.5625 74.496094 164.144531 72.917969 166.078125 72.917969 L 172.050781 72.917969 C 173.28125 72.917969 174.160156 72.566406 174.511719 72.390625 L 174.511719 23.015625 C 174.160156 22.839844 173.28125 22.488281 172.050781 22.488281 L 166.078125 22.488281 C 164.144531 22.488281 162.5625 20.910156 162.5625 18.976562 C 162.5625 17.042969 164.144531 15.460938 166.078125 15.460938 L 172.050781 15.460938 C 177.320312 15.460938 181.539062 18.625 181.539062 22.664062 L 181.539062 72.742188 C 181.539062 76.78125 177.496094 79.945312 172.050781 79.945312 Z M 174.6875 23.191406 Z M 174.6875 23.191406 "/><path style=" stroke:none;fill-rule:evenodd;fill:#dedcce;fill-opacity:1;" d="M 268.863281 285.339844 L 81.5625 285.339844 C 79.632812 285.339844 78.050781 283.757812 78.050781 281.824219 L 78.050781 232.628906 C 78.050781 230.695312 79.632812 229.113281 81.5625 229.113281 L 268.863281 229.113281 C 270.792969 229.113281 272.375 230.695312 272.375 232.628906 L 272.375 281.824219 C 272.375 283.757812 270.792969 285.339844 268.863281 285.339844 Z M 85.078125 278.3125 L 265.347656 278.3125 L 265.347656 236.140625 L 85.078125 236.140625 Z M 85.078125 278.3125 "/><path style=" stroke:none;fill-rule:evenodd;fill:#dedcce;fill-opacity:1;" d="M 81.5625 285.339844 C 81.039062 285.339844 80.335938 285.164062 79.808594 284.8125 L 35.707031 260.214844 C 34.652344 259.511719 33.949219 258.457031 33.949219 257.226562 C 33.949219 255.996094 34.652344 254.765625 35.707031 254.0625 L 79.808594 229.464844 C 81.5625 228.585938 83.671875 229.113281 84.726562 230.871094 C 85.605469 232.628906 85.078125 234.738281 83.320312 235.617188 L 44.667969 257.226562 L 83.320312 278.839844 C 85.078125 279.714844 85.605469 281.824219 84.726562 283.582031 C 84.023438 284.636719 82.792969 285.339844 81.5625 285.339844 Z M 81.5625 285.339844 "/><path style=" stroke:none;fill-rule:evenodd;fill:#dedcce;fill-opacity:1;" d="M 224.761719 267.417969 L 125.839844 267.417969 C 123.910156 267.417969 122.328125 265.835938 122.328125 263.902344 C 122.328125 261.96875 123.910156 260.390625 125.839844 260.390625 L 224.761719 260.390625 C 226.695312 260.390625 228.273438 261.96875 228.273438 263.902344 C 228.273438 265.835938 226.695312 267.417969 224.761719 267.417969 Z M 224.761719 267.417969 "/><path style=" stroke:none;fill-rule:evenodd;fill:#dedcce;fill-opacity:1;" d="M 210.175781 254.0625 L 140.25 254.0625 C 138.316406 254.0625 136.734375 252.484375 136.734375 250.550781 C 136.734375 248.617188 138.316406 247.035156 140.25 247.035156 L 210.175781 247.035156 C 212.109375 247.035156 213.691406 248.617188 213.691406 250.550781 C 213.691406 252.484375 212.109375 254.0625 210.175781 254.0625 Z M 210.175781 254.0625 "/><g clip-rule="nonzero" clip-path="url(#9f0e62f43a)"><path style=" stroke:none;fill-rule:evenodd;fill:#dedcce;fill-opacity:1;" d="M 296.445312 285.339844 L 268.863281 285.339844 C 266.929688 285.339844 265.347656 283.757812 265.347656 281.824219 C 265.347656 279.890625 266.929688 278.3125 268.863281 278.3125 L 292.933594 278.3125 L 292.933594 236.140625 L 268.863281 236.140625 C 266.929688 236.140625 265.347656 234.5625 265.347656 232.628906 C 265.347656 230.695312 266.929688 229.113281 268.863281 229.113281 L 296.445312 229.113281 C 298.378906 229.113281 299.960938 230.695312 299.960938 232.628906 L 299.960938 281.824219 C 299.960938 283.757812 298.378906 285.339844 296.445312 285.339844 Z M 296.445312 285.339844 "/></g><path style=" stroke:none;fill-rule:evenodd;fill:#dedcce;fill-opacity:1;" d="M 192.785156 30.042969 C 191.90625 30.042969 190.851562 29.695312 190.324219 28.992188 C 188.917969 27.585938 188.917969 25.476562 190.324219 24.070312 L 193.484375 20.910156 C 194.714844 19.503906 197 19.503906 198.40625 20.910156 C 199.8125 22.136719 199.8125 24.421875 198.40625 25.828125 L 195.242188 28.992188 C 194.539062 29.695312 193.660156 30.042969 192.785156 30.042969 Z M 192.785156 30.042969 "/><path style=" stroke:none;fill-rule:evenodd;fill:#dedcce;fill-opacity:1;" d="M 205.960938 51.304688 L 201.566406 51.304688 C 199.636719 51.304688 198.054688 49.722656 198.054688 47.789062 C 198.054688 45.859375 199.636719 44.277344 201.566406 44.277344 L 205.960938 44.277344 C 207.894531 44.277344 209.476562 45.859375 209.476562 47.789062 C 209.476562 49.722656 207.894531 51.304688 205.960938 51.304688 Z M 205.960938 51.304688 "/><path style=" stroke:none;fill-rule:evenodd;fill:#dedcce;fill-opacity:1;" d="M 195.945312 75.550781 C 195.066406 75.550781 194.011719 75.199219 193.484375 74.496094 L 190.324219 71.335938 C 188.917969 69.929688 188.917969 67.820312 190.324219 66.414062 C 191.554688 65.007812 193.835938 65.007812 195.242188 66.414062 L 198.40625 69.578125 C 199.8125 70.808594 199.8125 73.089844 198.40625 74.496094 C 197.703125 75.199219 196.824219 75.550781 195.945312 75.550781 Z M 195.945312 75.550781 "/></g></svg>