<svg xmlns="http://www.w3.org/2000/svg" width="11" height="11" viewBox="0 0 11 11" fill="none"><path fill-rule="evenodd" clip-rule="evenodd" d="M0.648661 10.3807C0.487945 10.22 0.393974 10.0057 0.387425 9.78495C0.380877 9.56421 0.462285 9.35512 0.61374 9.20366L7.23005 2.58735L2.17704 2.43861C2.0676 2.43537 1.9586 2.4106 1.85625 2.36572C1.7539 2.32084 1.66021 2.25673 1.58053 2.17705C1.50086 2.09737 1.43674 2.00368 1.39187 1.90133C1.34699 1.79898 1.32222 1.68998 1.31897 1.58054C1.31572 1.4711 1.33406 1.36338 1.37294 1.26351C1.41182 1.16365 1.47048 1.0736 1.54557 0.998518C1.62066 0.92343 1.7107 0.864771 1.81057 0.825891C1.91043 0.787011 2.01815 0.768672 2.12759 0.771919L9.18985 0.981446C9.29932 0.984556 9.40839 1.00923 9.5108 1.05407C9.61321 1.0989 9.70695 1.163 9.78666 1.24271C9.86636 1.32242 9.93047 1.41616 9.9753 1.51857C10.0201 1.62098 10.0448 1.73005 10.0479 1.83952L10.2574 8.90178C10.264 9.12279 10.1825 9.33215 10.0308 9.4838C9.8792 9.63544 9.66984 9.71695 9.44883 9.7104C9.22781 9.70384 9.01324 9.60975 8.85232 9.44883C8.6914 9.28791 8.59731 9.07334 8.59076 8.85233L8.44202 3.79932L1.8257 10.4156C1.67425 10.5671 1.46515 10.6485 1.24441 10.6419C1.02368 10.6354 0.809378 10.5414 0.648661 10.3807Z" fill="#010915"></path></svg>