<svg xmlns="http://www.w3.org/2000/svg" xmlns:xlink="http://www.w3.org/1999/xlink" width="400" zoomAndPan="magnify" viewBox="0 0 300 307.91998" height="400" preserveAspectRatio="xMidYMid meet" version="1.2"><defs><clipPath id="a7a950bc45"><path d="M 5.25 36.050781 L 294.675781 36.050781 L 294.675781 263.785156 L 5.25 263.785156 Z M 5.25 36.050781 "/></clipPath></defs><g id="80d7457a3e"><g clip-rule="nonzero" clip-path="url(#a7a950bc45)"><path style=" stroke:none;fill-rule:nonzero;fill:#000000;fill-opacity:1;" d="M 218.042969 77.292969 C 223.320312 77.292969 223.320312 69.105469 218.042969 69.105469 C 212.777344 69.105469 212.765625 77.292969 218.042969 77.292969 Z M 85.234375 76.027344 C 90.507812 76.027344 90.515625 67.832031 85.234375 67.832031 C 79.964844 67.832031 79.957031 76.027344 85.234375 76.027344 Z M 64.585938 107.164062 C 69.855469 107.164062 69.863281 98.96875 64.585938 98.96875 C 59.3125 98.96875 59.304688 107.164062 64.585938 107.164062 Z M 124.316406 90.507812 C 129.582031 90.507812 129.601562 82.320312 124.316406 82.320312 C 119.046875 82.320312 119.039062 90.507812 124.316406 90.507812 Z M 138.296875 56.644531 C 143.574219 56.644531 143.574219 48.449219 138.296875 48.449219 C 133.027344 48.449219 133.019531 56.644531 138.296875 56.644531 Z M 208.832031 108.753906 C 214.109375 108.753906 214.117188 100.558594 208.832031 100.558594 C 203.566406 100.558594 203.554688 108.753906 208.832031 108.753906 Z M 182.464844 65.539062 C 187.734375 65.539062 187.742188 57.347656 182.464844 57.347656 C 177.1875 57.347656 177.179688 65.539062 182.464844 65.539062 Z M 149.964844 44.230469 C 84.234375 44.230469 30.757812 77.171875 30.757812 117.667969 L 30.757812 121.1875 C 30.757812 125.273438 34.082031 128.597656 38.167969 128.597656 L 261.769531 128.597656 C 265.851562 128.597656 269.175781 125.273438 269.175781 121.1875 L 269.175781 117.667969 C 269.175781 77.171875 215.699219 44.230469 149.96875 44.230469 Z M 261.765625 136.777344 L 38.164062 136.777344 C 29.570312 136.777344 22.574219 129.78125 22.574219 121.1875 L 22.574219 117.667969 C 22.574219 95.503906 36.082031 74.800781 60.601562 59.382812 C 84.535156 44.335938 116.265625 36.050781 149.964844 36.050781 C 183.664062 36.050781 215.398438 44.335938 239.328125 59.382812 C 263.851562 74.800781 277.351562 95.503906 277.351562 117.667969 L 277.351562 121.1875 C 277.351562 129.78125 270.355469 136.777344 261.765625 136.777344 Z M 283.234375 150.898438 C 283.773438 150.480469 283.589844 150.644531 282.988281 151.042969 C 282.128906 151.605469 281.257812 152.148438 280.359375 152.648438 C 277.679688 154.109375 274.753906 155.195312 271.726562 155.6875 C 267.226562 156.421875 262.644531 155.746094 258.546875 153.753906 C 253.902344 151.503906 250.292969 147.769531 245.496094 145.722656 C 235.515625 141.449219 223.4375 143.535156 215.304688 150.765625 C 215.214844 150.839844 215.082031 150.929688 214.90625 151.042969 C 214.046875 151.605469 213.179688 152.148438 212.277344 152.648438 C 209.597656 154.109375 206.664062 155.195312 203.644531 155.6875 C 199.144531 156.421875 194.566406 155.746094 190.464844 153.753906 C 185.820312 151.503906 182.199219 147.769531 177.414062 145.722656 C 167.433594 141.449219 155.355469 143.535156 147.222656 150.765625 C 147.132812 150.839844 147 150.929688 146.824219 151.042969 C 145.964844 151.605469 145.085938 152.148438 144.1875 152.648438 C 141.507812 154.109375 138.582031 155.195312 135.566406 155.6875 C 131.066406 156.421875 126.472656 155.746094 122.371094 153.753906 C 117.730469 151.503906 114.117188 147.769531 109.332031 145.722656 C 99.34375 141.449219 87.265625 143.535156 79.140625 150.765625 C 79.046875 150.839844 78.914062 150.929688 78.738281 151.042969 C 77.875 151.605469 77.007812 152.148438 76.101562 152.648438 C 73.425781 154.109375 70.492188 155.195312 67.476562 155.6875 C 62.980469 156.421875 58.390625 155.746094 54.289062 153.753906 C 49.652344 151.503906 46.035156 147.769531 41.246094 145.722656 C 31.195312 141.429688 19.019531 143.554688 10.898438 150.898438 C 6.976562 154.449219 12.785156 160.214844 16.691406 156.6875 C 19.175781 154.449219 23.347656 152.554688 26.964844 151.910156 C 37.511719 150.007812 43.628906 158.179688 52.453125 161.871094 C 63.152344 166.34375 75.816406 163.828125 84.777344 156.6875 C 87.261719 154.449219 91.433594 152.554688 95.046875 151.910156 C 105.597656 150.007812 111.714844 158.179688 120.542969 161.871094 C 131.238281 166.34375 143.898438 163.828125 152.859375 156.6875 C 155.34375 154.449219 159.515625 152.554688 163.136719 151.910156 C 173.679688 150.007812 179.796875 158.179688 188.621094 161.871094 C 199.320312 166.34375 211.980469 163.828125 220.949219 156.6875 C 223.4375 154.449219 227.597656 152.554688 231.21875 151.910156 C 241.773438 150.007812 247.886719 158.179688 256.714844 161.871094 C 267.402344 166.34375 280.074219 163.828125 289.03125 156.6875 C 293.152344 153.40625 287.324219 147.648438 283.234375 150.898438 Z M 19.222656 178.992188 C 16.03125 178.992188 13.433594 181.589844 13.433594 184.78125 L 13.433594 190.109375 C 13.433594 193.300781 16.03125 195.898438 19.222656 195.898438 L 280.707031 195.898438 C 283.898438 195.898438 286.496094 193.300781 286.496094 190.109375 L 286.496094 184.78125 C 286.496094 181.589844 283.898438 178.992188 280.707031 178.992188 Z M 280.707031 204.078125 L 19.222656 204.078125 C 11.519531 204.078125 5.253906 197.820312 5.253906 190.109375 L 5.253906 184.78125 C 5.253906 177.082031 11.519531 170.8125 19.222656 170.8125 L 280.707031 170.8125 C 288.40625 170.8125 294.675781 177.082031 294.675781 184.78125 L 294.675781 190.109375 C 294.675781 197.820312 288.40625 204.078125 280.707031 204.078125 Z M 38.164062 220.332031 C 34.074219 220.332031 30.753906 223.65625 30.753906 227.734375 L 30.753906 232.859375 C 30.753906 245.398438 40.953125 255.605469 53.5 255.605469 L 246.421875 255.605469 C 258.96875 255.605469 269.167969 245.398438 269.167969 232.859375 L 269.167969 227.734375 C 269.167969 223.65625 265.84375 220.332031 261.761719 220.332031 Z M 246.425781 263.785156 L 53.503906 263.785156 C 36.449219 263.785156 22.574219 249.90625 22.574219 232.859375 L 22.574219 227.734375 C 22.574219 219.144531 29.570312 212.148438 38.167969 212.148438 L 261.769531 212.148438 C 270.359375 212.148438 277.355469 219.144531 277.355469 227.734375 L 277.355469 232.859375 C 277.355469 249.90625 263.488281 263.785156 246.429688 263.785156 "/></g></g></svg>