<svg xmlns="http://www.w3.org/2000/svg" xmlns:xlink="http://www.w3.org/1999/xlink" width="400" zoomAndPan="magnify" viewBox="0 0 300 307.91998" height="400" preserveAspectRatio="xMidYMid meet" version="1.2"><defs><clipPath id="e57685f02b"><path d="M 14 35.511719 L 285.929688 35.511719 L 285.929688 264.203125 L 14 264.203125 Z M 14 35.511719 "/></clipPath></defs><g id="97c1a277e4"><g clip-rule="nonzero" clip-path="url(#e57685f02b)"><path style=" stroke:none;fill-rule:nonzero;fill:#000000;fill-opacity:1;" d="M 283.84375 94.300781 L 229.84375 37.15625 C 228.84375 36.097656 227.453125 35.496094 226 35.496094 L 73.679688 35.496094 C 72.226562 35.496094 70.835938 36.097656 69.835938 37.15625 L 15.835938 94.300781 C 14.015625 96.230469 13.902344 99.207031 15.566406 101.265625 L 145.726562 262.199219 C 146.730469 263.441406 148.242188 264.164062 149.839844 264.164062 C 151.4375 264.164062 152.949219 263.441406 153.953125 262.199219 L 284.109375 101.265625 C 285.777344 99.207031 285.664062 96.230469 283.84375 94.300781 Z M 71.96875 50.308594 L 89.914062 92.644531 L 31.964844 92.644531 Z M 194.472656 103.230469 L 149.839844 239.371094 L 105.207031 103.230469 Z M 109.984375 92.644531 L 149.839844 49.429688 L 189.695312 92.644531 Z M 161.152344 46.082031 L 218.007812 46.082031 L 200.105469 88.320312 Z M 99.574219 88.320312 L 81.671875 46.082031 L 138.527344 46.082031 Z M 94.070312 103.230469 L 137.222656 234.855469 L 30.765625 103.230469 Z M 205.609375 103.230469 L 268.910156 103.230469 L 162.457031 234.855469 Z M 209.765625 92.644531 L 227.710938 50.308594 L 267.714844 92.644531 Z M 209.765625 92.644531 "/></g></g></svg>