<svg xmlns="http://www.w3.org/2000/svg" xmlns:xlink="http://www.w3.org/1999/xlink" width="400" zoomAndPan="magnify" viewBox="0 0 300 307.91998" height="400" preserveAspectRatio="xMidYMid meet" version="1.2"><defs><clipPath id="5b54861ff6"><path d="M 68 4 L 268 4 L 268 289 L 68 289 Z M 68 4 "/></clipPath><clipPath id="cc393216a1"><path d="M 116.910156 0 L 277.457031 58.738281 L 183.167969 316.460938 L 22.621094 257.722656 Z M 116.910156 0 "/></clipPath><clipPath id="0792535146"><path d="M 116.910156 0 L 277.457031 58.738281 L 183.167969 316.460938 L 22.621094 257.722656 Z M 116.910156 0 "/></clipPath><clipPath id="ba1cd27e27"><path d="M 116.910156 0 L 277.457031 58.738281 L 183.167969 316.460938 L 22.621094 257.722656 Z M 116.910156 0 "/></clipPath><clipPath id="f422912c3a"><path d="M 99 251 L 124 251 L 124 276 L 99 276 Z M 99 251 "/></clipPath><clipPath id="4f209e6711"><path d="M 116.910156 0 L 277.457031 58.738281 L 183.167969 316.460938 L 22.621094 257.722656 Z M 116.910156 0 "/></clipPath><clipPath id="b6e3ef1d4b"><path d="M 116.910156 0 L 277.457031 58.738281 L 183.167969 316.460938 L 22.621094 257.722656 Z M 116.910156 0 "/></clipPath><clipPath id="cbd573f1a5"><path d="M 116.910156 0 L 277.457031 58.738281 L 183.167969 316.460938 L 22.621094 257.722656 Z M 116.910156 0 "/></clipPath></defs><g id="85a71457ce"><g clip-rule="nonzero" clip-path="url(#5b54861ff6)"><g clip-rule="nonzero" clip-path="url(#cc393216a1)"><g clip-rule="nonzero" clip-path="url(#0792535146)"><g clip-rule="nonzero" clip-path="url(#ba1cd27e27)"><path style=" stroke:none;fill-rule:nonzero;fill:#000000;fill-opacity:1;" d="M 84.933594 162.140625 L 117.417969 174.023438 L 87.96875 254.519531 C 83.144531 267.707031 89.953125 282.355469 103.148438 287.183594 C 116.347656 292.011719 131 285.214844 135.824219 272.027344 L 165.273438 191.53125 L 197.757812 203.414062 C 203.996094 205.699219 210.941406 205.363281 217.007812 202.488281 C 223.046875 199.6875 227.738281 194.503906 229.972656 188.171875 L 243.121094 152.234375 C 244.023438 149.773438 243.070312 147.207031 240.675781 146.332031 L 236.617188 144.84375 L 267.632812 60.074219 C 268.53125 57.609375 267.554688 55.113281 265.160156 54.238281 L 193.378906 27.976562 C 191.78125 27.394531 190.113281 27.6875 188.8125 28.769531 L 167.773438 46.050781 L 163.214844 19.40625 C 162.921875 17.738281 161.835938 16.4375 160.242188 15.855469 L 129.714844 4.6875 C 127.25 3.785156 124.386719 4.871094 123.484375 7.335938 L 92.46875 92.109375 L 88.988281 90.835938 C 86.523438 89.933594 83.605469 91.164062 82.730469 93.554688 L 69.582031 129.492188 C 64.785156 142.609375 71.8125 157.335938 84.933594 162.140625 Z M 130.640625 14.964844 L 154.640625 23.746094 L 160.074219 55.636719 C 160.394531 57.234375 161.453125 58.605469 163.050781 59.191406 C 164.644531 59.773438 166.3125 59.480469 167.613281 58.394531 L 192.78125 37.699219 L 217.722656 46.824219 L 211.546875 63.707031 C 210.644531 66.171875 211.84375 68.742188 214.308594 69.644531 C 216.773438 70.546875 219.347656 69.355469 220.25 66.890625 L 226.425781 50.007812 L 236.792969 53.800781 L 226.269531 82.566406 C 225.367188 85.03125 226.566406 87.601562 229.03125 88.503906 C 231.496094 89.40625 234.070312 88.214844 234.972656 85.75 L 245.496094 56.984375 L 257.3125 61.308594 L 227.890625 141.734375 L 101.214844 95.390625 Z M 221.273438 184.988281 C 218.222656 193.320312 209.207031 197.746094 200.867188 194.695312 L 163.960938 181.191406 C 162.800781 180.769531 161.554688 180.804688 160.4375 181.382812 C 159.347656 181.886719 158.515625 182.816406 158.09375 183.972656 L 127.050781 268.820312 C 123.976562 277.222656 114.667969 281.539062 106.257812 278.464844 C 97.847656 275.386719 93.523438 266.082031 96.597656 257.675781 L 127.636719 172.832031 C 128.0625 171.671875 128.023438 170.425781 127.519531 169.339844 C 127.011719 168.25 126.109375 167.34375 124.949219 166.921875 L 88.042969 153.417969 C 79.707031 150.367188 75.164062 140.984375 78.210938 132.652344 L 89.796875 100.988281 L 232.710938 153.273438 L 221.128906 184.9375 Z M 221.273438 184.988281 "/></g></g></g></g><g clip-rule="nonzero" clip-path="url(#f422912c3a)"><g clip-rule="nonzero" clip-path="url(#4f209e6711)"><g clip-rule="nonzero" clip-path="url(#b6e3ef1d4b)"><g clip-rule="nonzero" clip-path="url(#cbd573f1a5)"><path style=" stroke:none;fill-rule:nonzero;fill:#000000;fill-opacity:1;" d="M 107.535156 274.742188 C 113.917969 277.078125 120.992188 273.914062 123.21875 267.828125 C 125.472656 261.667969 122.082031 254.761719 115.703125 252.425781 C 109.320312 250.089844 102.246094 253.253906 100.019531 259.339844 C 97.765625 265.5 101.15625 272.40625 107.535156 274.742188 Z M 112.519531 261.121094 C 114.117188 261.703125 114.996094 263.339844 114.519531 264.644531 C 114.015625 266.023438 112.3125 266.632812 110.71875 266.046875 C 109.121094 265.464844 108.242188 263.828125 108.71875 262.523438 C 109.195312 261.21875 110.925781 260.535156 112.519531 261.121094 Z M 112.519531 261.121094 "/></g></g></g></g></g></svg>