<svg xmlns="http://www.w3.org/2000/svg" xmlns:xlink="http://www.w3.org/1999/xlink" width="2080" zoomAndPan="magnify" viewBox="0 0 1560 1087.499972" height="1450" preserveAspectRatio="xMidYMid meet" version="1.2"><defs><clipPath id="140c10c2ee"><path d="M 0.359375 0 L 1559.640625 0 L 1559.640625 1087 L 0.359375 1087 Z M 0.359375 0 "/></clipPath><clipPath id="31512d8aa2"><path d="M 58.808594 0 L 1501.191406 0 C 1516.691406 0 1531.558594 6.160156 1542.519531 17.121094 C 1553.484375 28.082031 1559.640625 42.949219 1559.640625 58.449219 L 1559.640625 1028.550781 C 1559.640625 1060.832031 1533.472656 1087 1501.191406 1087 L 58.808594 1087 C 43.308594 1087 28.441406 1080.84375 17.476562 1069.878906 C 6.515625 1058.917969 0.359375 1044.050781 0.359375 1028.550781 L 0.359375 58.449219 C 0.359375 42.949219 6.515625 28.082031 17.476562 17.121094 C 28.441406 6.160156 43.308594 0 58.808594 0 Z M 58.808594 0 "/></clipPath></defs><g id="6ad0da1573"><g clip-rule="nonzero" clip-path="url(#140c10c2ee)"><g clip-rule="nonzero" clip-path="url(#31512d8aa2)"><path style=" stroke:none;fill-rule:nonzero;fill:#505a3c;fill-opacity:1;" d="M 0.359375 0 L 1559.5625 0 L 1559.5625 1087 L 0.359375 1087 Z M 0.359375 0 "/></g></g></g></svg>