<svg xmlns="http://www.w3.org/2000/svg" xmlns:xlink="http://www.w3.org/1999/xlink" width="400" zoomAndPan="magnify" viewBox="0 0 300 307.91998" height="400" preserveAspectRatio="xMidYMid meet" version="1.2"><defs><clipPath id="a7f3074124"><path d="M 0.0390625 29.992188 L 299.960938 29.992188 L 299.960938 268.429688 L 0.0390625 268.429688 Z M 0.0390625 29.992188 "/></clipPath></defs><g id="6230edc59d"><path style=" stroke:none;fill-rule:nonzero;fill:#dedcce;fill-opacity:1;" d="M 269.59375 49.851562 L 30.40625 49.851562 C 24.71875 49.851562 20.121094 54.414062 20.121094 60.070312 L 20.121094 198.601562 C 20.121094 204.257812 24.71875 208.820312 30.40625 208.820312 L 269.59375 208.820312 C 275.28125 208.820312 279.878906 204.257812 279.878906 198.601562 L 279.878906 60.105469 C 279.878906 54.449219 275.28125 49.851562 269.59375 49.851562 Z M 273.238281 198.601562 C 273.238281 200.578125 271.601562 202.210938 269.59375 202.210938 L 30.40625 202.210938 C 28.398438 202.210938 26.761719 200.578125 26.761719 198.601562 L 26.761719 60.105469 C 26.761719 58.128906 28.398438 56.492188 30.40625 56.492188 L 269.59375 56.492188 C 271.601562 56.492188 273.238281 58.128906 273.238281 60.105469 Z M 273.238281 198.601562 "/><g clip-rule="nonzero" clip-path="url(#a7f3074124)"><path style=" stroke:none;fill-rule:nonzero;fill:#dedcce;fill-opacity:1;" d="M 275.828125 29.992188 L 24.171875 29.992188 C 10.921875 29.992188 0.125 40.722656 0.125 53.902344 L 0.125 204.765625 C 0.125 217.949219 10.921875 228.679688 24.171875 228.679688 L 113.417969 228.679688 C 113.382812 228.78125 113.347656 228.847656 113.347656 228.953125 L 113.347656 242.066406 L 104.933594 242.066406 C 96.726562 242.066406 90.050781 248.707031 90.050781 256.917969 L 90.050781 259.574219 C 90.050781 264.480469 94.035156 268.464844 98.972656 268.464844 L 201.027344 268.464844 C 205.964844 268.464844 209.949219 264.480469 209.949219 259.574219 L 209.949219 256.917969 C 209.949219 248.742188 203.238281 242.066406 195.066406 242.066406 L 186.652344 242.066406 L 186.652344 228.953125 C 186.652344 228.847656 186.617188 228.78125 186.582031 228.679688 L 275.828125 228.679688 C 289.078125 228.679688 299.875 217.949219 299.875 204.765625 L 299.875 53.902344 C 299.875 40.722656 289.078125 29.992188 275.828125 29.992188 Z M 195.066406 248.707031 C 199.59375 248.707031 203.308594 252.386719 203.308594 256.917969 L 203.308594 259.574219 C 203.308594 260.800781 202.285156 261.820312 201.058594 261.820312 L 98.972656 261.820312 C 97.746094 261.820312 96.726562 260.800781 96.726562 259.574219 L 96.726562 256.917969 C 96.726562 252.386719 100.4375 248.707031 104.96875 248.707031 Z M 119.957031 228.679688 L 180.042969 228.679688 C 180.007812 228.78125 179.976562 228.847656 179.976562 228.953125 L 179.976562 242.066406 L 120.023438 242.066406 L 120.023438 228.953125 C 120.023438 228.847656 119.992188 228.78125 119.957031 228.679688 Z M 293.199219 204.765625 C 293.199219 214.304688 285.398438 222.070312 275.828125 222.070312 L 24.171875 222.070312 C 14.566406 222.070312 6.800781 214.304688 6.800781 204.765625 L 6.800781 53.902344 C 6.800781 44.367188 14.601562 36.632812 24.171875 36.632812 L 275.828125 36.632812 C 285.433594 36.632812 293.199219 44.367188 293.199219 53.902344 Z M 293.199219 204.765625 "/></g><path style=" stroke:none;fill-rule:nonzero;fill:#dedcce;fill-opacity:1;" d="M 151.976562 67.050781 C 151.90625 67.019531 151.804688 66.984375 151.738281 66.917969 C 151.667969 66.882812 151.601562 66.8125 151.5 66.78125 C 151.464844 66.746094 151.398438 66.746094 151.328125 66.710938 C 151.15625 66.644531 151.023438 66.609375 150.851562 66.542969 C 150.714844 66.507812 150.578125 66.472656 150.441406 66.472656 C 150.304688 66.4375 150.171875 66.4375 150 66.4375 C 149.828125 66.4375 149.695312 66.4375 149.523438 66.472656 C 149.386719 66.472656 149.25 66.507812 149.113281 66.542969 C 148.945312 66.609375 148.808594 66.644531 148.636719 66.710938 C 148.570312 66.746094 148.5 66.746094 148.46875 66.78125 C 148.363281 66.8125 148.296875 66.882812 148.230469 66.917969 C 148.160156 66.984375 148.058594 67.019531 147.992188 67.050781 L 91.414062 107.996094 C 90.5625 108.609375 90.050781 109.628906 90.050781 110.6875 L 90.050781 148.054688 C 90.050781 149.109375 90.5625 150.097656 91.414062 150.742188 L 148.023438 191.6875 C 148.09375 191.722656 148.160156 191.753906 148.230469 191.789062 C 148.332031 191.859375 148.398438 191.925781 148.5 191.960938 C 148.535156 191.992188 148.601562 191.992188 148.671875 191.992188 C 149.113281 192.199219 149.523438 192.335938 150 192.335938 C 150.476562 192.335938 150.886719 192.199219 151.328125 191.992188 C 151.398438 191.992188 151.464844 191.992188 151.5 191.960938 C 151.601562 191.925781 151.667969 191.859375 151.769531 191.789062 C 151.839844 191.753906 151.90625 191.722656 151.976562 191.6875 L 208.585938 150.710938 C 209.4375 150.097656 209.949219 149.074219 209.949219 148.019531 L 209.949219 110.652344 C 209.949219 109.597656 209.4375 108.609375 208.585938 107.960938 Z M 153.339844 76.214844 L 201.195312 110.824219 L 181.234375 125.230469 L 153.339844 105.066406 Z M 146.660156 76.214844 L 146.660156 105.066406 L 118.765625 125.230469 L 98.804688 110.824219 Z M 96.726562 117.5 L 113.109375 129.351562 L 96.726562 141.207031 Z M 146.660156 182.457031 L 98.804688 147.847656 L 118.765625 133.441406 L 146.660156 153.605469 Z M 150 147.816406 L 124.417969 129.351562 L 150 110.855469 L 175.582031 129.351562 Z M 153.339844 182.457031 L 153.339844 153.605469 L 181.234375 133.441406 L 201.195312 147.847656 Z M 203.273438 141.207031 L 186.890625 129.351562 L 203.273438 117.5 Z M 203.273438 141.207031 "/><path style=" stroke:none;fill-rule:nonzero;fill:#dedcce;fill-opacity:1;" d="M 46.757812 67.460938 C 40.320312 67.460938 35.105469 72.671875 35.105469 79.042969 C 35.105469 85.445312 40.351562 90.625 46.757812 90.625 C 53.160156 90.625 58.40625 85.410156 58.40625 79.042969 C 58.40625 72.636719 53.195312 67.460938 46.757812 67.460938 Z M 46.757812 84.015625 C 43.996094 84.015625 41.75 81.800781 41.75 79.042969 C 41.75 76.316406 43.996094 74.070312 46.757812 74.070312 C 49.515625 74.070312 51.761719 76.316406 51.761719 79.042969 C 51.761719 81.800781 49.515625 84.015625 46.757812 84.015625 Z M 46.757812 84.015625 "/><path style=" stroke:none;fill-rule:nonzero;fill:#dedcce;fill-opacity:1;" d="M 46.757812 100.980469 C 40.320312 100.980469 35.105469 106.191406 35.105469 112.558594 C 35.105469 118.964844 40.351562 124.140625 46.757812 124.140625 C 53.160156 124.140625 58.40625 118.929688 58.40625 112.558594 C 58.40625 106.191406 53.195312 100.980469 46.757812 100.980469 Z M 46.757812 117.566406 C 43.996094 117.566406 41.75 115.320312 41.75 112.59375 C 41.75 109.835938 43.996094 107.621094 46.757812 107.621094 C 49.515625 107.621094 51.761719 109.835938 51.761719 112.59375 C 51.761719 115.285156 49.515625 117.566406 46.757812 117.566406 Z M 46.757812 117.566406 "/><path style=" stroke:none;fill-rule:nonzero;fill:#dedcce;fill-opacity:1;" d="M 46.757812 134.496094 C 40.320312 134.496094 35.105469 139.707031 35.105469 146.078125 C 35.105469 152.445312 40.351562 157.660156 46.757812 157.660156 C 53.160156 157.660156 58.40625 152.445312 58.40625 146.078125 C 58.40625 139.707031 53.195312 134.496094 46.757812 134.496094 Z M 46.757812 151.050781 C 43.996094 151.050781 41.75 148.835938 41.75 146.078125 C 41.75 143.351562 43.996094 141.105469 46.757812 141.105469 C 49.515625 141.105469 51.761719 143.351562 51.761719 146.078125 C 51.761719 148.835938 49.515625 151.050781 46.757812 151.050781 Z M 46.757812 151.050781 "/><path style=" stroke:none;fill-rule:nonzero;fill:#dedcce;fill-opacity:1;" d="M 46.757812 168.046875 C 40.320312 168.046875 35.105469 173.257812 35.105469 179.628906 C 35.105469 186.03125 40.351562 191.210938 46.757812 191.210938 C 53.160156 191.210938 58.40625 186 58.40625 179.628906 C 58.40625 173.257812 53.195312 168.046875 46.757812 168.046875 Z M 46.757812 184.601562 C 43.996094 184.601562 41.75 182.355469 41.75 179.628906 C 41.75 176.871094 43.996094 174.65625 46.757812 174.65625 C 49.515625 174.65625 51.761719 176.871094 51.761719 179.628906 C 51.761719 182.355469 49.515625 184.601562 46.757812 184.601562 Z M 46.757812 184.601562 "/></g></svg>