<svg xmlns="http://www.w3.org/2000/svg" xmlns:xlink="http://www.w3.org/1999/xlink" width="400" zoomAndPan="magnify" viewBox="0 0 300 307.91998" height="400" preserveAspectRatio="xMidYMid meet" version="1.2"><defs><clipPath id="5e65191e5b"><path d="M 5.101562 189 L 218 189 L 218 299.921875 L 5.101562 299.921875 Z M 5.101562 189 "/></clipPath></defs><g id="f7891888d2"><path style=" stroke:none;fill-rule:nonzero;fill:#dedcce;fill-opacity:1;" d="M 156.960938 128.851562 C 138.523438 128.851562 123.519531 143.855469 123.519531 162.292969 C 123.519531 180.726562 138.523438 195.730469 156.960938 195.730469 C 175.394531 195.730469 190.398438 180.726562 190.398438 162.292969 C 190.398438 143.855469 175.394531 128.851562 156.960938 128.851562 Z M 156.960938 186.164062 C 143.792969 186.164062 133.085938 175.457031 133.085938 162.292969 C 133.085938 149.125 143.792969 138.417969 156.960938 138.417969 C 170.125 138.417969 180.832031 149.125 180.832031 162.292969 C 180.832031 175.457031 170.125 186.164062 156.960938 186.164062 Z M 156.960938 186.164062 "/><path style=" stroke:none;fill-rule:nonzero;fill:#dedcce;fill-opacity:1;" d="M 243.027344 140.734375 L 233.054688 116.660156 L 209.109375 117.890625 L 201.359375 110.140625 L 202.589844 86.195312 L 178.519531 76.222656 L 162.449219 94.019531 L 151.46875 94.019531 L 135.402344 76.222656 L 111.328125 86.195312 L 112.558594 110.140625 L 104.808594 117.890625 L 80.863281 116.660156 L 70.890625 140.734375 L 88.6875 156.800781 L 88.6875 167.765625 L 70.890625 183.832031 L 80.863281 207.90625 L 104.808594 206.675781 L 112.558594 214.425781 L 111.328125 238.371094 L 135.402344 248.339844 L 151.46875 230.546875 L 162.449219 230.546875 L 178.519531 248.339844 L 202.589844 238.371094 L 201.359375 214.425781 L 209.109375 206.675781 L 233.054688 207.90625 L 243.027344 183.832031 L 225.234375 167.765625 L 225.234375 156.800781 Z M 231.625 186.402344 L 226.8125 198.027344 L 205.363281 196.925781 L 191.609375 210.679688 L 192.710938 232.125 L 181.089844 236.9375 L 166.691406 221 L 147.226562 221 L 132.832031 236.9375 L 121.207031 232.125 L 122.308594 210.679688 L 108.554688 196.925781 L 87.105469 198.027344 L 82.296875 186.402344 L 98.234375 172.003906 L 98.234375 152.539062 L 82.296875 138.144531 L 87.105469 126.519531 L 108.554688 127.621094 L 122.308594 113.867188 L 121.207031 92.421875 L 132.832031 87.609375 L 147.226562 103.546875 L 166.691406 103.546875 L 181.089844 87.609375 L 192.710938 92.421875 L 191.609375 113.867188 L 205.363281 127.621094 L 226.8125 126.519531 L 231.625 138.144531 L 215.683594 152.539062 L 215.683594 172.003906 Z M 231.625 186.402344 "/><g clip-rule="nonzero" clip-path="url(#5e65191e5b)"><path style=" stroke:none;fill-rule:nonzero;fill:#dedcce;fill-opacity:1;" d="M 157.089844 290.375 C 102.074219 290.375 53.871094 255.925781 35.949219 204.269531 L 59.160156 218.042969 C 61.472656 219.417969 64.464844 218.609375 65.769531 216.261719 C 67.035156 213.984375 66.191406 211.117188 63.953125 209.777344 L 29.484375 189.339844 C 28.601562 188.828125 27.480469 189.121094 26.96875 189.984375 L 6.476562 224.523438 C 5.132812 226.800781 5.871094 229.71875 8.144531 231.0625 C 8.917969 231.519531 9.742188 231.722656 10.570312 231.722656 C 12.203125 231.722656 13.785156 230.878906 14.683594 229.390625 L 27.207031 208.253906 C 31.503906 220.335938 37.453125 231.757812 44.964844 242.242188 C 53.300781 253.90625 63.363281 264.152344 74.859375 272.707031 C 86.484375 281.375 99.335938 288.097656 113.015625 292.722656 C 127.175781 297.5 141.992188 299.921875 157.070312 299.921875 C 167.976562 299.921875 178.847656 298.636719 189.371094 296.121094 C 198 294.046875 206.429688 291.125 214.492188 287.433594 C 216.953125 286.316406 217.960938 283.359375 216.75 280.953125 C 215.59375 278.65625 212.820312 277.683594 210.488281 278.769531 C 193.722656 286.460938 175.78125 290.375 157.089844 290.375 Z M 157.089844 290.375 "/></g><path style=" stroke:none;fill-rule:nonzero;fill:#dedcce;fill-opacity:1;" d="M 157.089844 33.933594 C 168.878906 33.933594 180.539062 35.53125 191.777344 38.691406 L 163.71875 46.972656 C 161.183594 47.726562 159.75 50.371094 160.484375 52.902344 C 161.089844 54.980469 163 56.335938 165.058594 56.335938 C 165.5 56.335938 165.957031 56.28125 166.417969 56.136719 L 204.941406 44.769531 C 205.914062 44.476562 206.464844 43.464844 206.191406 42.492188 L 194.824219 3.964844 C 194.070312 1.433594 191.425781 0 188.894531 0.734375 C 186.359375 1.488281 184.925781 4.132812 185.660156 6.664062 L 192.234375 28.921875 C 180.8125 25.910156 169.023438 24.386719 157.089844 24.386719 C 138.488281 24.386719 120.453125 28.023438 103.46875 35.21875 C 87.070312 42.160156 72.324219 52.09375 59.671875 64.746094 C 47.019531 77.398438 37.085938 92.125 30.144531 108.542969 C 23.589844 124.023438 19.992188 140.382812 19.402344 157.222656 C 19.3125 159.921875 21.476562 162.164062 24.175781 162.164062 C 26.746094 162.164062 28.859375 160.125 28.953125 157.554688 C 31.375 88.96875 87.933594 33.933594 157.089844 33.933594 Z M 157.089844 33.933594 "/><path style=" stroke:none;fill-rule:nonzero;fill:#dedcce;fill-opacity:1;" d="M 285.8125 252.65625 L 260.96875 252.65625 C 282.875 227.554688 294.867188 195.695312 294.867188 162.164062 C 294.867188 151.164062 293.5625 140.199219 290.992188 129.605469 C 288.492188 119.304688 284.785156 109.296875 279.992188 99.820312 C 271.324219 82.761719 258.984375 67.464844 244.109375 55.328125 C 242.015625 53.621094 238.933594 54.003906 237.296875 56.152344 C 235.738281 58.210938 236.105469 61.113281 238.085938 62.746094 C 268.148438 87.242188 285.296875 123.195312 285.296875 162.164062 C 285.296875 193.527344 274.042969 223.332031 253.457031 246.722656 L 253.457031 220.300781 C 253.457031 217.691406 251.417969 215.488281 248.8125 215.433594 C 246.113281 215.359375 243.90625 217.527344 243.90625 220.207031 L 243.90625 260.367188 C 243.90625 261.378906 244.734375 262.203125 245.746094 262.203125 L 285.902344 262.203125 C 288.585938 262.203125 290.753906 260 290.679688 257.300781 C 290.605469 254.695312 288.417969 252.65625 285.8125 252.65625 Z M 285.8125 252.65625 "/></g></svg>